<svg width="24" height="24" viewBox="0 0 24 24" fill="none" xmlns="http://www.w3.org/2000/svg">
<path d="M8.25 3V12.3285C8.1735 12.3487 8.08275 12.378 8.01525 12.3983C7.65225 12.51 7.40025 12.627 7.21875 12.75C7.13442 12.8045 7.05578 12.8673 6.984 12.9375C6.9255 12.999 6.84375 13.125 6.84375 13.125L6.75 13.2892V15H7.5V21H9V15H15V21H16.5V15H17.25V13.2892L17.1562 13.125C17.1562 13.125 17.0738 12.999 17.0153 12.9375C16.9437 12.8673 16.8653 12.8045 16.7812 12.75C16.5998 12.627 16.3478 12.51 15.984 12.3983C15.9165 12.378 15.8265 12.3487 15.75 12.3285V3H14.25V3.75H9.75V3H8.25ZM9.75 5.25H11.25V12.0233C10.6815 12.0383 10.1715 12.0532 9.75 12.0938V5.25ZM12.75 5.25H14.25V12.0938C13.8277 12.0525 13.3185 12.0383 12.75 12.0233V5.25Z" fill="#B3B3B3"/>
</svg>
