<svg width="24" height="24" viewBox="0 0 24 24" fill="none" xmlns="http://www.w3.org/2000/svg">
<path d="M5.64844 8.29711C5.99981 11.2829 8.70919 13.9 12.0028 13.9C15.5353 13.9 18.3984 10.891 18.3984 7.64386C18.3984 7.61611 18.3966 7.58911 18.3962 7.56249C14.7519 7.06786 10.1091 9.71574 5.64844 8.29711Z" fill="#B8B8B8"/>
<path d="M20.25 7.66687C20.25 3.39075 18.1095 0.75075 18.1091 0.75H5.8905C5.8905 0.75 3.75 3.3945 3.75 7.66687C3.75 11.7274 7.221 15.4991 11.5856 15.7252C11.5346 18.0832 11.334 20.5387 10.7565 21.3892C9.94313 22.5877 7.09238 21.972 7.09238 23.25H16.9088C16.9088 21.9716 14.0569 22.5877 13.2435 21.3892C12.666 20.5387 12.4654 18.0836 12.4144 15.7252C16.7779 15.4995 20.25 11.7274 20.25 7.66687ZM12 14.7203C8.32725 14.7203 5.30625 11.8024 4.91475 8.4735C4.88575 8.23194 4.8706 7.98892 4.86937 7.74563C4.86937 4.05188 6.71925 1.76662 6.71925 1.76662H17.2804C17.2808 1.76775 19.0976 4.0125 19.128 7.65488C19.1284 7.68488 19.1306 7.7145 19.1306 7.74563C19.1306 11.3655 15.9382 14.7203 12 14.7203Z" fill="#B8B8B8"/>
</svg>
