<svg width="16" height="16" viewBox="0 0 16 16" fill="none" xmlns="http://www.w3.org/2000/svg">
<g clip-path="url(#clip0_591_251)">
<path d="M8 15.5C12.1421 15.5 15.5 12.1421 15.5 8C15.5 3.85786 12.1421 0.5 8 0.5C3.85786 0.5 0.5 3.85786 0.5 8C0.5 12.1421 3.85786 15.5 8 15.5Z" fill="#ED4C5C"/>
<path d="M10.325 9.75L10.35 8.4L9 8L10.35 7.6L10.325 6.25L11.15 7.325L12.5 6.925L11.675 8L12.5 9.075L11.15 8.675L10.325 9.75Z" fill="white"/>
<path d="M8.3 11C6.65 11 5.325 9.65 5.325 8C5.325 6.35 6.65 5 8.3 5C8.925 5 9.5 5.2 10 5.525C9.325 4.75 8.325 4.25 7.2 4.25C5.15 4.25 3.5 5.925 3.5 8C3.5 10.075 5.15 11.75 7.2 11.75C8.325 11.75 9.325 11.25 10 10.475C9.525 10.8 8.95 11 8.3 11Z" fill="white"/>
</g>
<defs>
<clipPath id="clip0_591_251">
<rect width="16" height="16" fill="white"/>
</clipPath>
</defs>
</svg>
