<svg width="16" height="16" viewBox="0 0 16 16" fill="none" xmlns="http://www.w3.org/2000/svg">
<g clip-path="url(#clip0_591_2)">
<path d="M7.97539 0.5C4.70039 0.5 1.92539 2.6 0.900391 5.5H15.0504C14.0254 2.6 11.2504 0.5 7.97539 0.5Z" fill="#3E4347"/>
<path d="M7.97539 15.5C11.2504 15.5 14.0254 13.425 15.0504 10.5H0.900391C1.92539 13.425 4.70039 15.5 7.97539 15.5Z" fill="#FFE62E"/>
<path d="M0.899609 5.5C0.624609 6.275 0.474609 7.125 0.474609 8C0.474609 8.875 0.624609 9.725 0.899609 10.5H15.0496C15.3246 9.725 15.4746 8.875 15.4746 8C15.4746 7.125 15.3246 6.275 15.0496 5.5H0.899609Z" fill="#ED4C5C"/>
</g>
<defs>
<clipPath id="clip0_591_2">
<rect width="16" height="16" fill="white"/>
</clipPath>
</defs>
</svg>
