<svg width="16" height="16" viewBox="0 0 16 16" fill="none" xmlns="http://www.w3.org/2000/svg">
<g clip-path="url(#clip0_591_226)">
<path d="M15.4242 7C15.3992 6.75 15.3492 6.5 15.2992 6.25H0.699219C0.649219 6.5 0.599219 6.75 0.574219 7H15.4242ZM0.574219 9C0.599219 9.25 0.649219 9.5 0.699219 9.75H15.2742C15.3242 9.5 15.3742 9.25 15.3992 9H0.574219Z" fill="white"/>
<path d="M5 1.125C4.75 1.225 4.5 1.375 4.25 1.5V14.5C4.5 14.65 4.75 14.775 5 14.875V1.125ZM7 0.575V15.45L7.75 15.525V0.5C7.5 0.5 7.25 0.525 7 0.575Z" fill="white"/>
<path d="M0.5 8C0.5 8.35 0.525 8.675 0.575 9H15.45C15.5 8.675 15.525 8.35 15.525 8C15.525 7.65 15.5 7.325 15.45 7H0.575C0.525 7.325 0.5 7.65 0.5 8Z" fill="#428BC1"/>
<path d="M5 14.8752C5.625 15.1502 6.3 15.3502 7 15.4252V0.575195C6.3 0.675195 5.625 0.850195 5 1.1252V14.8752Z" fill="#428BC1"/>
<path d="M4.24922 6.25V1.5C2.49922 2.525 1.19922 4.225 0.699219 6.25H4.24922ZM4.24922 9.75V14.5C2.49922 13.475 1.19922 11.775 0.699219 9.75H4.24922ZM7.99922 0.5H7.74922V6.25H15.2992C14.4992 2.95 11.5492 0.5 7.99922 0.5ZM7.74922 9.75V15.5H7.99922C11.5492 15.5 14.4992 13.05 15.2992 9.75H7.74922Z" fill="#ED4C5C"/>
</g>
<defs>
<clipPath id="clip0_591_226">
<rect width="16" height="16" fill="white"/>
</clipPath>
</defs>
</svg>
