<svg width="16" height="16" viewBox="0 0 16 16" fill="none" xmlns="http://www.w3.org/2000/svg">
<g clip-path="url(#clip0_591_136)">
<path d="M0.5 7.99981C0.5 11.2748 2.6 14.0498 5.5 15.0748V0.924805C2.6 1.9498 0.5 4.7248 0.5 7.99981Z" fill="#2A5F9E"/>
<path d="M15.5 7.99981C15.5 4.7248 13.425 1.9498 10.5 0.924805V15.0748C13.425 14.0498 15.5 11.2748 15.5 7.99981Z" fill="#C94747"/>
<path d="M5.5 15.075C6.275 15.35 7.125 15.5 8 15.5C8.875 15.5 9.725 15.35 10.5 15.075V0.925C9.725 0.65 8.875 0.5 8 0.5C7.125 0.5 6.275 0.65 5.5 0.925V15.075Z" fill="#FFCE31"/>
</g>
<defs>
<clipPath id="clip0_591_136">
<rect width="16" height="16" fill="white"/>
</clipPath>
</defs>
</svg>
