<svg width="16" height="16" viewBox="0 0 16 16" fill="none" xmlns="http://www.w3.org/2000/svg">
<g clip-path="url(#clip0_591_30)">
<path d="M8 15.5C12.1421 15.5 15.5 12.1421 15.5 8C15.5 3.85786 12.1421 0.5 8 0.5C3.85786 0.5 0.5 3.85786 0.5 8C0.5 12.1421 3.85786 15.5 8 15.5Z" fill="#F5F5F5"/>
<path d="M5.84944 8.42516C6.54944 8.90016 7.52444 8.70016 7.99944 8.00016C8.47444 7.30016 9.42444 7.10016 10.1494 7.57516C10.8244 8.02516 11.0244 8.90016 10.6494 9.57516C11.4744 8.17516 11.0994 6.35016 9.69944 5.42516C8.27444 4.47516 6.34944 4.85016 5.39944 6.27516C5.37444 6.32516 5.34944 6.37516 5.32444 6.40016C4.97444 7.12516 5.19944 7.97516 5.84944 8.42516Z" fill="#ED4C5C"/>
<path d="M10.1501 7.5748C9.45011 7.0998 8.47511 7.2998 8.00011 7.9998C7.52511 8.6998 6.57511 8.8998 5.85011 8.4248C5.17511 7.9748 4.97511 7.0998 5.35011 6.4248C4.50011 7.8248 4.90011 9.6498 6.30011 10.5748C7.72511 11.5248 9.65011 11.1498 10.6001 9.7248C10.6251 9.6748 10.6501 9.6248 10.6751 9.5998C11.0251 8.8748 10.8001 8.0248 10.1501 7.5748Z" fill="#428BC1"/>
<path d="M1.94961 5.8249L3.67461 3.2499L3.49961 3.1249L3.32461 3.0249L1.59961 5.5999L1.77461 5.6999L1.94961 5.8249ZM2.42461 6.1499L2.59961 6.2499L4.29961 3.6749L4.14961 3.5749L3.97461 3.4499L2.24961 6.0249L2.42461 6.1499ZM4.59961 3.8749L2.89961 6.4499L3.07461 6.5749L3.24961 6.6749L4.94961 4.0999L4.77461 3.9999L4.59961 3.8749ZM12.1246 10.6249L12.2996 10.7499L13.0996 9.5499L12.9246 9.4249L12.7496 9.3249L11.9496 10.5249L12.1246 10.6249ZM14.0496 10.1749L13.2496 11.3749L13.4246 11.4999L13.5996 11.5999L14.3996 10.3999L14.2246 10.2999L14.0496 10.1749ZM12.9496 11.1749L13.7496 9.9749L13.5746 9.8499L13.3996 9.7499L12.5996 10.9499L12.7746 11.0499L12.9496 11.1749ZM12.0246 10.7999L11.8496 10.6999L11.0496 11.8999L11.2246 11.9999L11.3996 12.1249L12.1996 10.9249L12.0246 10.7999ZM12.6496 11.2249L12.4996 11.1249L11.6996 12.3249L11.8496 12.4249L12.0246 12.5499L12.8246 11.3499L12.6496 11.2249ZM13.1246 11.5499L12.3246 12.7499L12.4996 12.8749L12.6746 12.9749L13.4746 11.7749L13.2996 11.6499L13.1246 11.5499ZM1.77461 10.2999L1.59961 10.3999L3.32461 12.9749L3.49961 12.8749L3.67461 12.7499L1.94961 10.1749L1.77461 10.2999ZM3.34961 11.2249L3.17461 11.3499L3.97461 12.5499L4.14961 12.4249L4.29961 12.3249L3.49961 11.1249L3.34961 11.2249ZM3.07461 9.4249L2.89961 9.5499L4.59961 12.1249L4.77461 11.9999L4.94961 11.8999L3.24961 9.3249L3.07461 9.4249ZM2.24961 9.9749L3.04961 11.1749L3.22461 11.0499L3.39961 10.9499L2.59961 9.7499L2.42461 9.8499L2.24961 9.9749ZM13.2996 4.3499L13.4746 4.2249L12.6746 3.0249L12.4996 3.1249L12.3246 3.2499L13.1246 4.4499L13.2996 4.3499ZM12.0246 5.1999L12.1996 5.0749L11.3996 3.8749L11.2246 3.9999L11.0496 4.0999L11.8496 5.2999L12.0246 5.1999ZM13.2496 4.6249L14.0496 5.8249L14.2246 5.6999L14.3996 5.5999L13.5996 4.3999L13.4246 4.4999L13.2496 4.6249ZM13.5746 6.1499L13.7496 6.0249L12.0246 3.4499L11.8496 3.5749L11.6996 3.6749L13.3996 6.2499L13.5746 6.1499ZM12.9246 6.5749L13.0996 6.4499L12.2996 5.2499L12.1246 5.3749L11.9496 5.4749L12.7496 6.6749L12.9246 6.5749Z" fill="#3E4347"/>
</g>
<defs>
<clipPath id="clip0_591_30">
<rect width="16" height="16" fill="white"/>
</clipPath>
</defs>
</svg>
