<svg width="16" height="16" viewBox="0 0 16 16" fill="none" xmlns="http://www.w3.org/2000/svg">
<g clip-path="url(#clip0_591_82)">
<path d="M8 15.5C12.1421 15.5 15.5 12.1421 15.5 8C15.5 3.85786 12.1421 0.5 8 0.5C3.85786 0.5 0.5 3.85786 0.5 8C0.5 12.1421 3.85786 15.5 8 15.5Z" fill="#ED4C5C"/>
<path d="M5.5 7.1L7.5 8.5L6.75 6.2L8.75 4.75H6.275L5.5 2.5L4.75 4.75H2.25L4.25 6.2L3.5 8.5L5.5 7.1ZM8.825 8.825L8.25 8.95L8.8 9.175V9.75L9.175 9.325L9.725 9.525L9.4 9.05L9.75 8.6L9.175 8.725L8.825 8.25V8.825ZM9.675 7.125L9.25 7.5L9.825 7.45L10.075 8L10.175 7.425L10.75 7.375L10.25 7.075L10.375 6.5L9.95 6.875L9.45 6.575L9.675 7.125ZM9.825 5.175L10 5.75L10.175 5.2H10.75L10.3 4.85L10.475 4.275L10 4.625L9.55 4.25L9.725 4.825L9.25 5.15L9.825 5.175ZM8.825 3.175V3.75L9.175 3.275L9.75 3.4L9.4 2.95L9.725 2.475L9.175 2.7L8.8 2.25V2.825L8.25 3.05L8.825 3.175Z" fill="#FFE62E"/>
</g>
<defs>
<clipPath id="clip0_591_82">
<rect width="16" height="16" fill="white"/>
</clipPath>
</defs>
</svg>
