<svg width="16" height="16" viewBox="0 0 16 16" fill="none" xmlns="http://www.w3.org/2000/svg">
<g clip-path="url(#clip0_591_140)">
<path d="M4.25 14.5V1.5C2 2.8 0.5 5.225 0.5 8C0.5 10.775 2 13.2 4.25 14.5Z" fill="#699635"/>
<path d="M8 0.5C6.625 0.5 5.35 0.875 4.25 1.5V14.5C5.35 15.15 6.625 15.5 8 15.5C12.15 15.5 15.5 12.15 15.5 8C15.5 3.85 12.15 0.5 8 0.5Z" fill="#ED4C5C"/>
<path d="M4.25 5C2.6 5 1.25 6.35 1.25 8C1.25 9.65 2.6 11 4.25 11C5.9 11 7.25 9.65 7.25 8C7.25 6.35 5.9 5 4.25 5ZM4.25 10.625C2.8 10.625 1.625 9.45 1.625 8C1.625 6.55 2.8 5.375 4.25 5.375C5.7 5.375 6.875 6.55 6.875 8C6.875 9.45 5.7 10.625 4.25 10.625Z" fill="#FFE62E"/>
<path d="M5.27617 10.9248C5.22617 10.9748 5.15117 10.9748 5.10117 10.9248L1.67617 6.3998C1.62617 6.3498 1.62617 6.2748 1.67617 6.2248L1.75117 6.1498C1.80117 6.0998 1.87617 6.0998 1.92617 6.1498L5.35117 10.6748C5.40117 10.7248 5.40117 10.7998 5.35117 10.8498L5.27617 10.9248Z" fill="#FFE62E"/>
<path d="M4.30078 4.875C4.37578 4.875 4.42578 4.925 4.42578 5V11C4.42578 11.075 4.37578 11.125 4.30078 11.125H4.17578C4.10078 11.125 4.05078 11.075 4.05078 11V5C4.05078 4.925 4.10078 4.875 4.17578 4.875H4.30078Z" fill="#FFE62E"/>
<path d="M7.2253 8.32491L4.2503 7.79991V8.17491L7.1753 8.69991C7.2503 8.69991 7.3003 8.67491 7.3253 8.59991L7.3503 8.47491C7.3503 8.42491 7.3003 8.34991 7.2253 8.32491ZM4.2503 7.77491L1.9003 6.12491C1.8503 6.07491 1.7753 6.09991 1.7253 6.14991L1.6503 6.24991C1.6003 6.29991 1.6253 6.37491 1.6753 6.42491L4.2503 8.22491V7.77491Z" fill="#FFE62E"/>
<path d="M4.1504 7.5L1.8004 9.85C1.7504 9.9 1.7504 9.975 1.8004 10.025L1.9004 10.125C1.9504 10.175 2.0254 10.175 2.0754 10.125L4.1504 8.05V7.5ZM4.2504 6.375L1.1254 7.85C1.0754 7.875 1.0254 7.95 1.0754 8.025L1.1254 8.15C1.1504 8.2 1.2254 8.25 1.3004 8.2L4.2504 6.8V6.375Z" fill="#FFE62E"/>
<path d="M7.02578 6.7999L4.05078 6.2749V6.6499L6.97578 7.1749C7.05078 7.1749 7.10078 7.1499 7.12578 7.0749L7.15078 6.9499C7.12578 6.8749 7.07578 6.7999 7.02578 6.7999ZM4.22578 9.7249C4.17578 9.7499 4.12578 9.8249 4.17578 9.8999L4.22578 10.0249C4.25078 10.0749 4.32578 10.1249 4.40078 10.0749L6.90078 8.9249L7.02578 8.4499L4.22578 9.7249ZM4.22578 8.8749L1.42578 7.8499V8.2499L4.22578 9.2749V8.8749Z" fill="#FFE62E"/>
<path d="M2.27539 9.7002V10.0752L5.97539 10.3252C6.12539 10.2252 6.25039 10.1002 6.37539 9.9752L2.27539 9.7002Z" fill="#FFE62E"/>
<path d="M3 6.75V8.5C3 9.2 3.55 9.75 4.25 9.75C4.95 9.75 5.5 9.2 5.5 8.5V6.75H3Z" fill="white"/>
<path d="M4.25 10.25C3.275 10.25 2.5 9.475 2.5 8.5V6.25H6V8.5C6 9.475 5.225 10.25 4.25 10.25ZM3.5 7.25V8.5C3.5 8.925 3.825 9.25 4.25 9.25C4.675 9.25 5 8.925 5 8.5V7.25H3.5Z" fill="#ED4C5C"/>
<path d="M4.02539 7.3502V7.7502C4.02539 7.8252 4.07539 7.8752 4.15039 7.8752H4.35039C4.42539 7.8752 4.47539 7.8252 4.47539 7.7502V7.3252H4.02539V7.3502ZM4.02539 7.9752V8.4002C4.02539 8.4752 4.07539 8.5252 4.15039 8.5252H4.35039C4.42539 8.5252 4.47539 8.4752 4.47539 8.4002V7.9752H4.02539ZM3.52539 7.9752V8.4002C3.52539 8.4752 3.57539 8.5252 3.65039 8.5252H3.85039C3.92539 8.5252 3.97539 8.4752 3.97539 8.4002V7.9752H3.52539ZM4.52539 7.9752V8.4002C4.52539 8.4752 4.57539 8.5252 4.65039 8.5252H4.85039C4.92539 8.5252 4.97539 8.4752 4.97539 8.4002V7.9752H4.52539ZM4.02539 8.5752V9.0002C4.02539 9.0752 4.07539 9.1252 4.15039 9.1252H4.35039C4.42539 9.1252 4.47539 9.0752 4.47539 9.0002V8.5752H4.02539Z" fill="#0071BC"/>
<path d="M4.24922 8.2748C4.27683 8.2748 4.29922 8.25242 4.29922 8.2248C4.29922 8.19719 4.27683 8.1748 4.24922 8.1748C4.2216 8.1748 4.19922 8.19719 4.19922 8.2248C4.19922 8.25242 4.2216 8.2748 4.24922 8.2748Z" fill="white"/>
<path d="M4.14961 8.3998C4.17722 8.3998 4.19961 8.37742 4.19961 8.3498C4.19961 8.32219 4.17722 8.2998 4.14961 8.2998C4.122 8.2998 4.09961 8.32219 4.09961 8.3498C4.09961 8.37742 4.122 8.3998 4.14961 8.3998Z" fill="white"/>
<path d="M4.34883 8.3998C4.37644 8.3998 4.39883 8.37742 4.39883 8.3498C4.39883 8.32219 4.37644 8.2998 4.34883 8.2998C4.32121 8.2998 4.29883 8.32219 4.29883 8.3498C4.29883 8.37742 4.32121 8.3998 4.34883 8.3998Z" fill="white"/>
<path d="M4.14961 8.1498C4.17722 8.1498 4.19961 8.12742 4.19961 8.0998C4.19961 8.07219 4.17722 8.0498 4.14961 8.0498C4.122 8.0498 4.09961 8.07219 4.09961 8.0998C4.09961 8.12742 4.122 8.1498 4.14961 8.1498Z" fill="white"/>
<path d="M4.34883 8.1498C4.37644 8.1498 4.39883 8.12742 4.39883 8.0998C4.39883 8.07219 4.37644 8.0498 4.34883 8.0498C4.32121 8.0498 4.29883 8.07219 4.29883 8.0998C4.29883 8.12742 4.32121 8.1498 4.34883 8.1498Z" fill="white"/>
<path d="M4.24922 7.6498C4.27683 7.6498 4.29922 7.62742 4.29922 7.5998C4.29922 7.57219 4.27683 7.5498 4.24922 7.5498C4.2216 7.5498 4.19922 7.57219 4.19922 7.5998C4.19922 7.62742 4.2216 7.6498 4.24922 7.6498Z" fill="white"/>
<path d="M4.14961 7.7748C4.17722 7.7748 4.19961 7.75242 4.19961 7.7248C4.19961 7.69719 4.17722 7.6748 4.14961 7.6748C4.122 7.6748 4.09961 7.69719 4.09961 7.7248C4.09961 7.75242 4.122 7.7748 4.14961 7.7748Z" fill="white"/>
<path d="M4.34883 7.7748C4.37644 7.7748 4.39883 7.75242 4.39883 7.7248C4.39883 7.69719 4.37644 7.6748 4.34883 7.6748C4.32121 7.6748 4.29883 7.69719 4.29883 7.7248C4.29883 7.75242 4.32121 7.7748 4.34883 7.7748Z" fill="white"/>
<path d="M4.14961 7.5248C4.17722 7.5248 4.19961 7.50242 4.19961 7.4748C4.19961 7.44719 4.17722 7.4248 4.14961 7.4248C4.122 7.4248 4.09961 7.44719 4.09961 7.4748C4.09961 7.50242 4.122 7.5248 4.14961 7.5248Z" fill="white"/>
<path d="M4.34883 7.5248C4.37644 7.5248 4.39883 7.50242 4.39883 7.4748C4.39883 7.44719 4.37644 7.4248 4.34883 7.4248C4.32121 7.4248 4.29883 7.44719 4.29883 7.4748C4.29883 7.50242 4.32121 7.5248 4.34883 7.5248Z" fill="white"/>
<path d="M4.74922 8.2748C4.77683 8.2748 4.79922 8.25242 4.79922 8.2248C4.79922 8.19719 4.77683 8.1748 4.74922 8.1748C4.7216 8.1748 4.69922 8.19719 4.69922 8.2248C4.69922 8.25242 4.7216 8.2748 4.74922 8.2748Z" fill="white"/>
<path d="M4.64961 8.3998C4.67722 8.3998 4.69961 8.37742 4.69961 8.3498C4.69961 8.32219 4.67722 8.2998 4.64961 8.2998C4.622 8.2998 4.59961 8.32219 4.59961 8.3498C4.59961 8.37742 4.622 8.3998 4.64961 8.3998Z" fill="white"/>
<path d="M4.84883 8.3998C4.87644 8.3998 4.89883 8.37742 4.89883 8.3498C4.89883 8.32219 4.87644 8.2998 4.84883 8.2998C4.82121 8.2998 4.79883 8.32219 4.79883 8.3498C4.79883 8.37742 4.82121 8.3998 4.84883 8.3998Z" fill="white"/>
<path d="M4.64961 8.1498C4.67722 8.1498 4.69961 8.12742 4.69961 8.0998C4.69961 8.07219 4.67722 8.0498 4.64961 8.0498C4.622 8.0498 4.59961 8.07219 4.59961 8.0998C4.59961 8.12742 4.622 8.1498 4.64961 8.1498Z" fill="white"/>
<path d="M4.84883 8.1498C4.87644 8.1498 4.89883 8.12742 4.89883 8.0998C4.89883 8.07219 4.87644 8.0498 4.84883 8.0498C4.82121 8.0498 4.79883 8.07219 4.79883 8.0998C4.79883 8.12742 4.82121 8.1498 4.84883 8.1498Z" fill="white"/>
<path d="M3.74922 8.2748C3.77683 8.2748 3.79922 8.25242 3.79922 8.2248C3.79922 8.19719 3.77683 8.1748 3.74922 8.1748C3.7216 8.1748 3.69922 8.19719 3.69922 8.2248C3.69922 8.25242 3.7216 8.2748 3.74922 8.2748Z" fill="white"/>
<path d="M3.64961 8.3998C3.67722 8.3998 3.69961 8.37742 3.69961 8.3498C3.69961 8.32219 3.67722 8.2998 3.64961 8.2998C3.622 8.2998 3.59961 8.32219 3.59961 8.3498C3.59961 8.37742 3.622 8.3998 3.64961 8.3998Z" fill="white"/>
<path d="M3.84883 8.3998C3.87644 8.3998 3.89883 8.37742 3.89883 8.3498C3.89883 8.32219 3.87644 8.2998 3.84883 8.2998C3.82121 8.2998 3.79883 8.32219 3.79883 8.3498C3.79883 8.37742 3.82121 8.3998 3.84883 8.3998Z" fill="white"/>
<path d="M3.64961 8.1498C3.67722 8.1498 3.69961 8.12742 3.69961 8.0998C3.69961 8.07219 3.67722 8.0498 3.64961 8.0498C3.622 8.0498 3.59961 8.07219 3.59961 8.0998C3.59961 8.12742 3.622 8.1498 3.64961 8.1498Z" fill="white"/>
<path d="M3.84883 8.1498C3.87644 8.1498 3.89883 8.12742 3.89883 8.0998C3.89883 8.07219 3.87644 8.0498 3.84883 8.0498C3.82121 8.0498 3.79883 8.07219 3.79883 8.0998C3.79883 8.12742 3.82121 8.1498 3.84883 8.1498Z" fill="white"/>
<path d="M4.24922 8.8998C4.27683 8.8998 4.29922 8.87742 4.29922 8.8498C4.29922 8.82219 4.27683 8.7998 4.24922 8.7998C4.2216 8.7998 4.19922 8.82219 4.19922 8.8498C4.19922 8.87742 4.2216 8.8998 4.24922 8.8998Z" fill="white"/>
<path d="M4.14961 9.0248C4.17722 9.0248 4.19961 9.00242 4.19961 8.9748C4.19961 8.94719 4.17722 8.9248 4.14961 8.9248C4.122 8.9248 4.09961 8.94719 4.09961 8.9748C4.09961 9.00242 4.122 9.0248 4.14961 9.0248Z" fill="white"/>
<path d="M4.34883 9.0248C4.37644 9.0248 4.39883 9.00242 4.39883 8.9748C4.39883 8.94719 4.37644 8.9248 4.34883 8.9248C4.32121 8.9248 4.29883 8.94719 4.29883 8.9748C4.29883 9.00242 4.32121 9.0248 4.34883 9.0248Z" fill="white"/>
<path d="M4.14961 8.7748C4.17722 8.7748 4.19961 8.75242 4.19961 8.7248C4.19961 8.69719 4.17722 8.6748 4.14961 8.6748C4.122 8.6748 4.09961 8.69719 4.09961 8.7248C4.09961 8.75242 4.122 8.7748 4.14961 8.7748Z" fill="white"/>
<path d="M4.34883 8.7748C4.37644 8.7748 4.39883 8.75242 4.39883 8.7248C4.39883 8.69719 4.37644 8.6748 4.34883 8.6748C4.32121 8.6748 4.29883 8.69719 4.29883 8.7248C4.29883 8.75242 4.32121 8.7748 4.34883 8.7748Z" fill="white"/>
<path d="M4 7H4.5L4.45 6.75V6.5H4.5V6.375H4.425V6.45H4.4V6.375H4.325V6.45H4.275V6.375H4.225V6.45H4.175V6.375H4.1V6.45H4.05V6.375H4V6.5H4.05V6.75L4 7Z" fill="#FFE62E"/>
<path d="M4.32461 6.9999H4.29961V6.8999C4.29961 6.8749 4.27461 6.8499 4.24961 6.8499C4.22461 6.8499 4.19961 6.8749 4.19961 6.8999V6.9999H4.17461V6.8999C4.17461 6.8499 4.19961 6.8249 4.24961 6.8249C4.29961 6.8249 4.32461 6.8499 4.32461 6.8999V6.9999ZM4.24961 6.7249H4.09961V6.5999C4.09961 6.5499 4.12461 6.5249 4.17461 6.5249C4.22461 6.5249 4.24961 6.5499 4.24961 6.5999V6.7249ZM4.12461 6.6999H4.22461V6.5999C4.22461 6.5749 4.19961 6.5499 4.17461 6.5499C4.14961 6.5499 4.12461 6.5749 4.12461 6.5999V6.6999ZM4.39961 6.7249H4.24961V6.5999C4.24961 6.5499 4.27461 6.5249 4.32461 6.5249C4.37461 6.5249 4.39961 6.5499 4.39961 6.5999V6.7249ZM4.27461 6.6999H4.37461V6.5999C4.37461 6.5749 4.34961 6.5499 4.32461 6.5499C4.29961 6.5499 4.27461 6.5749 4.27461 6.5999V6.6999Z" fill="#3E4347"/>
<path d="M2.75 7H3.25L3.2 6.75V6.5H3.25V6.375H3.175V6.45H3.15V6.375H3.075V6.45H3.025V6.375H2.975V6.45H2.925V6.375H2.85V6.45H2.8V6.375H2.75V6.5H2.8V6.75L2.75 7Z" fill="#FFE62E"/>
<path d="M3.07461 6.9999H3.04961V6.8999C3.04961 6.8749 3.02461 6.8499 2.99961 6.8499C2.97461 6.8499 2.94961 6.8749 2.94961 6.8999V6.9999H2.92461V6.8999C2.92461 6.8499 2.94961 6.8249 2.99961 6.8249C3.04961 6.8249 3.07461 6.8499 3.07461 6.8999V6.9999ZM2.99961 6.7249H2.84961V6.5999C2.84961 6.5499 2.87461 6.5249 2.92461 6.5249C2.97461 6.5249 2.99961 6.5499 2.99961 6.5999V6.7249ZM2.87461 6.6999H2.97461V6.5999C2.97461 6.5749 2.94961 6.5499 2.92461 6.5499C2.89961 6.5499 2.87461 6.5749 2.87461 6.5999V6.6999Z" fill="#3E4347"/>
<path d="M3.15 6.7249H3V6.5999C3 6.5499 3.025 6.5249 3.075 6.5249C3.125 6.5249 3.15 6.5499 3.15 6.5999V6.7249ZM3.025 6.6999H3.125V6.5999C3.125 6.5749 3.1 6.5499 3.075 6.5499C3.05 6.5499 3.025 6.5749 3.025 6.5999V6.6999Z" fill="#3E4347"/>
<path d="M2.75 8.4751H3.25L3.2 8.2251V7.9751H3.25V7.8501H3.2V7.9251H3.15V7.8501H3.1V7.9251H3.025V7.8501H2.975V7.9251H2.925V7.8501H2.875V7.9251H2.825V7.8501H2.75V7.9751H2.825V8.2251L2.75 8.4751Z" fill="#FFE62E"/>
<path d="M3.07461 8.475H3.04961V8.375C3.04961 8.35 3.02461 8.325 2.99961 8.325C2.97461 8.325 2.94961 8.35 2.94961 8.375V8.475H2.92461V8.375C2.92461 8.325 2.94961 8.3 2.99961 8.3C3.04961 8.3 3.07461 8.325 3.07461 8.375V8.475ZM2.99961 8.2H2.84961V8.075C2.84961 8.025 2.87461 8 2.92461 8C2.97461 8 2.99961 8.025 2.99961 8.075V8.2ZM2.87461 8.175H2.97461V8.075C2.97461 8.05 2.94961 8.025 2.92461 8.025C2.89961 8.025 2.87461 8.05 2.87461 8.075V8.175ZM3.17461 8.2H3.02461V8.075C3.02461 8.025 3.04961 8 3.09961 8C3.14961 8 3.17461 8.025 3.17461 8.075V8.2ZM3.04961 8.175H3.14961V8.075C3.14961 8.05 3.12461 8.025 3.09961 8.025C3.07461 8.025 3.04961 8.05 3.04961 8.075V8.175Z" fill="#3E4347"/>
<path d="M5.25 8.4999H5.75L5.7 8.2499V7.9999H5.75V7.8999H5.675V7.9499H5.65V7.8999H5.575V7.9499H5.525V7.8999H5.475V7.9499H5.425V7.8999H5.35V7.9499H5.3V7.8999H5.25V7.9999H5.3V8.2499L5.25 8.4999Z" fill="#FFE62E"/>
<path d="M5.57461 8.4999H5.54961V8.3999C5.54961 8.3749 5.52461 8.3499 5.49961 8.3499C5.47461 8.3499 5.44961 8.3749 5.44961 8.3999V8.4999H5.42461V8.3999C5.42461 8.3499 5.44961 8.3249 5.49961 8.3249C5.54961 8.3249 5.57461 8.3499 5.57461 8.3999V8.4999ZM5.49961 8.2249H5.34961V8.0999C5.34961 8.0499 5.37461 8.0249 5.42461 8.0249C5.47461 8.0249 5.49961 8.0499 5.49961 8.0999V8.2249ZM5.37461 8.1999H5.47461V8.0999C5.47461 8.0749 5.44961 8.0499 5.42461 8.0499C5.39961 8.0499 5.37461 8.0749 5.37461 8.0999V8.1999ZM5.64961 8.2249H5.49961V8.0999C5.49961 8.0499 5.52461 8.0249 5.57461 8.0249C5.62461 8.0249 5.64961 8.0499 5.64961 8.0999V8.2249ZM5.52461 8.1999H5.62461V8.0999C5.62461 8.0749 5.59961 8.0499 5.57461 8.0499C5.54961 8.0499 5.52461 8.0749 5.52461 8.0999V8.1999Z" fill="#3E4347"/>
<path d="M5.25 7H5.75L5.7 6.75V6.5H5.75V6.375H5.675V6.45H5.65V6.375H5.575V6.45H5.525V6.375H5.475V6.45H5.425V6.375H5.35V6.45H5.3V6.375H5.25V6.5H5.3V6.75L5.25 7Z" fill="#FFE62E"/>
<path d="M5.57461 6.9999H5.54961V6.8999C5.54961 6.8749 5.52461 6.8499 5.49961 6.8499C5.47461 6.8499 5.44961 6.8749 5.44961 6.8999V6.9999H5.42461V6.8999C5.42461 6.8499 5.44961 6.8249 5.49961 6.8249C5.54961 6.8249 5.57461 6.8499 5.57461 6.8999V6.9999ZM5.49961 6.7249H5.34961V6.5999C5.34961 6.5499 5.37461 6.5249 5.42461 6.5249C5.47461 6.5249 5.49961 6.5499 5.49961 6.5999V6.7249ZM5.37461 6.6999H5.47461V6.5999C5.47461 6.5749 5.44961 6.5499 5.42461 6.5499C5.39961 6.5499 5.37461 6.5749 5.37461 6.5999V6.6999ZM5.64961 6.7249H5.49961V6.5999C5.49961 6.5499 5.52461 6.5249 5.57461 6.5249C5.62461 6.5249 5.64961 6.5499 5.64961 6.5999V6.7249ZM5.52461 6.6999H5.62461V6.5999C5.62461 6.5749 5.59961 6.5499 5.57461 6.5499C5.54961 6.5499 5.52461 6.5749 5.52461 6.5999V6.6999Z" fill="#3E4347"/>
<path d="M3.55 9.9001L3.9 9.5251L3.675 9.4001L3.5 9.2251L3.55 9.1751L3.475 9.1001L3.425 9.1501L3.475 9.2001L3.45 9.2251L3.4 9.1751L3.35 9.2251L3.4 9.2501L3.35 9.3001L3.325 9.2501L3.275 9.3001L3.325 9.3501L3.275 9.3751L3.25 9.3251L3.2 9.3751L3.225 9.4251L3.2 9.4501L3.175 9.4001L3.125 9.4501L3.2 9.5251H3.225L3.25 9.5001L3.425 9.6751L3.55 9.9001Z" fill="#FFE62E"/>
<path d="M3.67484 9.5999C3.64984 9.5749 3.62484 9.5749 3.59984 9.5999C3.57484 9.6249 3.57484 9.6499 3.59984 9.6749L3.67484 9.7499L3.64984 9.7749L3.57484 9.6999C3.54984 9.6749 3.54984 9.6249 3.57484 9.5999C3.59984 9.5749 3.64984 9.5749 3.67484 9.5999ZM3.52484 9.5249L3.42484 9.6249L3.34984 9.5499C3.32484 9.5249 3.32484 9.4749 3.34984 9.4499C3.37484 9.4249 3.42484 9.4249 3.44984 9.4499L3.52484 9.5249ZM3.42484 9.5999L3.49984 9.5249L3.42484 9.4499C3.39984 9.4249 3.37484 9.4249 3.34984 9.4499C3.31234 9.4874 3.32484 9.4999 3.34984 9.5249L3.42484 9.5999ZM3.64984 9.3999L3.54984 9.4999L3.47484 9.4249C3.44984 9.3999 3.44984 9.3499 3.47484 9.3249C3.49984 9.2999 3.54984 9.2999 3.57484 9.3249L3.64984 9.3999ZM3.54984 9.4749L3.62484 9.3999L3.54984 9.3249C3.52484 9.2999 3.49984 9.2999 3.47484 9.3249C3.43734 9.3624 3.44984 9.3749 3.47484 9.3999L3.54984 9.4749Z" fill="#3E4347"/>
<path d="M4.94961 9.9001L4.59961 9.5251L4.79961 9.4001L4.97461 9.2251L4.94961 9.1751L5.02461 9.1001L5.07461 9.1501L5.02461 9.2001L5.04961 9.2251L5.09961 9.1751L5.14961 9.2251L5.09961 9.2501L5.14961 9.3001L5.17461 9.2501L5.22461 9.3001L5.17461 9.3501L5.22461 9.3751L5.24961 9.3251L5.29961 9.3751L5.24961 9.4251L5.29961 9.4501L5.32461 9.4001L5.37461 9.4501L5.29961 9.5251H5.27461L5.24961 9.5001L5.07461 9.6751L4.94961 9.9001Z" fill="#FFE62E"/>
<path d="M4.72461 9.6499L4.82461 9.5999C4.84961 9.5749 4.87461 9.5749 4.89961 9.5999C4.93711 9.6374 4.92461 9.6499 4.89961 9.6749L4.79961 9.7499L4.82461 9.7749L4.89961 9.6999C4.92461 9.6749 4.92461 9.6249 4.89961 9.5999C4.87461 9.5749 4.82461 9.5749 4.79961 9.5999L4.72461 9.6499ZM5.04961 9.4499C5.07461 9.4249 5.12461 9.4249 5.14961 9.4499C5.17461 9.4749 5.17461 9.5249 5.14961 9.5499L5.07461 9.6249L4.97461 9.5249L5.04961 9.4499ZM5.12461 9.5249C5.14961 9.4999 5.14961 9.4749 5.12461 9.4499C5.09961 9.4249 5.07461 9.4249 5.04961 9.4499L4.99961 9.5249L5.07461 9.5999L5.12461 9.5249ZM4.92461 9.3249C4.94961 9.2999 4.99961 9.2999 5.02461 9.3249C5.04961 9.3499 5.04961 9.3999 5.02461 9.4249L4.94961 9.4999L4.84961 9.3999L4.92461 9.3249ZM5.02461 9.3999C5.04961 9.3749 5.04961 9.3499 5.02461 9.3249C4.99961 9.2999 4.97461 9.2999 4.94961 9.3249L4.87461 9.3999L4.94961 9.4749L5.02461 9.3999Z" fill="#3E4347"/>
</g>
<defs>
<clipPath id="clip0_591_140">
<rect width="16" height="16" fill="white"/>
</clipPath>
</defs>
</svg>
