<svg width="16" height="16" viewBox="0 0 16 16" fill="none" xmlns="http://www.w3.org/2000/svg">
<g clip-path="url(#clip0_591_19)">
<path d="M8 15.5C12.1421 15.5 15.5 12.1421 15.5 8C15.5 3.85786 12.1421 0.5 8 0.5C3.85786 0.5 0.5 3.85786 0.5 8C0.5 12.1421 3.85786 15.5 8 15.5Z" fill="#699635"/>
<path d="M7.92578 6.675C7.90078 6.45 8.02578 6.225 8.25078 6.275C8.42578 6.3 8.62578 6.475 8.52578 6.65C8.37578 6.925 7.97578 6.925 7.72578 7.075C7.75078 7.225 8.47578 7.05 8.60078 7.05C8.72578 7.05 8.85078 7.1 8.77578 7.25C8.70078 7.4 8.45078 7.4 8.30078 7.425C8.15078 7.45 7.90078 7.45 7.82578 7.575C7.67578 7.775 7.97578 7.8 8.07578 7.85C8.32578 7.975 7.92578 8.1 7.82578 8.075C7.45078 8 7.37578 7.8 7.15078 7.55C6.92578 7.85 6.22578 8.525 6.07578 7.825C5.82578 7.925 5.57578 8.05 5.30078 8.075C5.42578 7.9 5.67578 7.825 5.87578 7.725C6.12578 7.6 6.12578 7.375 6.27578 7.175C6.32578 7.25 6.27578 7.35 6.30078 7.45C6.50078 7.35 6.75078 7.15 6.65078 6.9C6.65078 6.875 6.35078 6.275 6.60078 6.375C6.82578 6.475 6.75078 6.7 6.80078 6.875C6.87578 7.2 6.72578 7.375 6.47578 7.575C6.37578 7.65 6.10078 7.95 6.42578 7.95C6.65078 7.95 6.85078 7.7 6.97578 7.55C7.12578 7.35 7.07578 7.15 6.97578 6.925C6.90078 6.75 6.72578 6.375 6.95078 6.25C7.12578 6.525 7.20078 6.85 7.27578 7.175C7.32578 7.45 7.37578 7.725 7.67578 7.8C7.65078 7.6 7.77578 7.45 7.95078 7.375C7.82578 7.275 7.12578 7.4 7.40078 7.025C7.42578 6.85 7.92578 6.775 7.92578 6.675Z" fill="white"/>
<path d="M4.10113 7.59966C4.22613 7.94966 4.65113 7.82466 4.90113 7.72466C5.30113 7.52466 5.30113 7.22466 5.30113 6.82466C5.15113 6.89966 5.17613 7.17466 5.12613 7.29966C5.02613 7.49966 4.70113 7.67466 4.47613 7.64966C4.15113 7.59966 4.00113 7.04966 4.25113 6.84966C4.30113 7.02466 4.17613 7.39966 4.47613 7.42466C4.70113 7.44966 5.15113 7.17466 5.07613 6.92466C4.77613 7.02466 4.60113 6.92466 4.70113 6.59966C4.77613 6.29966 5.07613 6.52466 5.20113 6.67466C5.67613 6.39966 4.82613 5.34966 5.32613 5.07466C5.42613 5.24966 5.57613 5.47466 5.45113 5.64966C5.30113 5.84966 5.45113 6.27466 5.47613 6.49966C5.72613 6.27466 5.52613 6.67466 5.72613 6.69966C5.85113 6.72466 5.90113 6.39966 5.97613 6.39966C6.00113 6.47466 6.00113 6.69966 6.12613 6.67466C6.27613 6.62466 6.10113 6.42466 6.25113 6.37466C6.30113 6.49966 6.27613 6.87466 6.10113 6.84966C5.95113 6.82466 5.97613 6.72466 5.80113 6.82466C5.65113 6.89966 5.60113 6.82466 5.50113 6.74966C5.47613 7.04966 5.57613 7.37466 5.40113 7.64966C5.25113 7.87466 4.95113 7.99966 4.70113 8.04966C4.05113 8.17466 3.87613 7.52466 4.10113 6.99966C4.15113 7.14966 4.05113 7.42466 4.10113 7.59966ZM10.2011 7.72466C10.3261 8.04966 10.5761 7.37466 10.6511 7.27466C10.8511 6.97466 11.1511 7.74966 11.2761 7.24966C11.3511 6.92466 11.2511 6.59966 11.2261 6.27466C11.2011 6.04966 11.1261 5.84966 10.9761 5.67466C10.8261 5.47466 10.6761 5.29966 10.7511 5.04966C11.0011 5.14966 11.0011 5.34966 11.1261 5.54966C11.1511 5.39966 11.0511 5.19966 11.1511 5.07466C11.2761 4.89966 11.3761 5.37466 11.3761 5.42466C11.4011 5.54966 11.2761 5.59966 11.3511 5.79966C11.4011 5.94966 11.5011 6.09966 11.6011 6.22466C11.5761 6.07466 11.3511 5.04966 11.6011 5.04966C11.6761 5.04966 11.7511 5.34966 11.7511 5.39966C11.8011 5.54966 11.7011 5.67466 11.7011 5.84966C11.6761 6.14966 11.7261 6.49966 11.9261 6.72466C12.0261 6.84966 12.4011 7.29966 12.2011 7.44966C12.0511 7.27466 11.9511 7.07466 11.8261 6.89966C11.8261 7.09966 11.8761 7.32466 11.7761 7.47466C11.6761 7.42466 11.7261 7.09966 11.7261 7.02466C11.7261 6.74966 11.5511 6.52466 11.4011 6.29966C11.3511 6.67466 11.6511 7.37466 11.3011 7.64966C11.0761 7.84966 10.7761 7.39966 10.7011 7.57466C10.6261 7.69966 10.4511 8.14966 10.2511 8.09966C10.0011 8.04966 9.82613 7.34966 10.1011 7.27466C10.1261 7.39966 10.1261 7.57466 10.2011 7.72466Z" fill="white"/>
<path d="M4.85022 6.02486C5.02522 6.04986 4.85022 5.44986 4.85022 5.34986C4.87522 5.24986 4.95022 5.19986 5.00022 5.29986C5.07522 5.44986 5.07522 5.62486 5.10022 5.77486C5.10022 5.89986 5.12522 6.04986 5.02522 6.14986C4.87522 6.29986 4.67522 6.22486 4.60022 6.02486C4.25022 6.32486 4.70022 6.84986 4.40022 7.14986C4.35022 6.87486 4.40022 6.57486 4.30022 6.32486C4.25022 6.19986 4.02522 6.24986 4.00022 6.02486C4.00022 5.92486 4.07522 5.64986 3.97522 5.57486C3.92522 5.67486 3.87522 6.44986 3.62522 6.22486C3.42522 6.07486 3.47522 5.57486 3.55022 5.37486C3.70022 5.44986 3.52522 5.99986 3.72522 6.02486C3.82522 6.04986 3.85022 5.62486 3.87522 5.54986C3.95022 5.42486 4.20022 5.07486 4.15022 5.42486C4.12522 5.57486 4.00022 6.04986 4.30022 6.02486C4.27522 5.77486 4.25022 5.52486 4.20022 5.27486C4.17522 5.14986 4.25022 4.89986 4.35022 5.12486C4.42522 5.27486 4.37522 5.34986 4.35022 5.49986C4.32522 5.67486 4.40022 5.84986 4.42522 5.99986C4.57522 5.87486 4.37522 5.39986 4.50022 5.19986C4.80022 5.37486 4.47522 5.97486 4.85022 6.02486ZM8.07522 6.07486C7.95022 6.24986 7.72522 6.09986 7.62522 5.97486C7.50022 6.12486 7.25022 6.37486 7.05022 6.17486C6.90022 6.02486 7.07522 5.74986 6.95022 5.62486C6.87522 5.74986 6.75022 6.34986 6.52522 6.07486C6.40022 5.92486 6.22522 5.39986 6.50022 5.27486C6.47522 5.47486 6.42522 5.69986 6.55022 5.87486C6.67522 6.04986 6.80022 5.59986 6.85022 5.49986C6.92522 5.32486 7.17522 5.02486 7.12522 5.39986C7.10022 5.54986 7.05022 5.89986 7.20022 5.99986C7.30022 6.07486 7.42522 5.94986 7.47522 5.87486C7.57522 5.74986 7.52522 5.54986 7.50022 5.39986C7.47522 5.27486 7.42522 5.12486 7.50022 4.99986C7.60022 4.84986 7.67522 5.19986 7.67522 5.27486C7.67522 5.34986 7.77522 6.12486 7.95022 5.87486C8.12522 5.64986 7.65022 5.14986 7.97522 5.02486C8.10022 4.97486 8.32522 5.47486 8.07522 5.32486C8.15022 5.54986 8.25022 5.87486 8.07522 6.07486ZM9.02522 6.37486C9.05022 6.69986 9.32522 7.59986 8.95022 7.79986C8.90022 7.69986 8.95022 7.54986 8.97522 7.42486C9.00022 7.19986 8.95022 6.97486 8.92522 6.77486C8.87522 6.29986 8.82522 5.94986 8.50022 5.57486C8.42522 5.47486 8.30022 5.39986 8.27522 5.24986C8.27522 5.19986 8.25022 4.97486 8.35022 5.02486C8.42522 5.04986 8.85022 5.42486 8.62522 5.42486C8.65022 5.47486 8.75022 5.67486 8.80022 5.67486C8.80022 5.54986 8.65022 5.17486 8.80022 5.09986C8.92522 5.02486 9.07522 5.49986 9.02522 5.59986C8.97522 5.72486 8.97522 5.79986 9.02522 5.97486C9.07522 6.17486 9.20022 6.34986 9.30022 6.52486C9.45022 6.77486 9.75022 7.12486 9.67522 7.44986C9.52522 7.37486 9.42522 7.02486 9.35022 6.87486C9.30022 6.74986 9.25022 6.62486 9.17522 6.52486C9.15022 6.49986 9.00022 6.29986 9.02522 6.42486V6.37486ZM12.5002 6.84986C12.5252 7.37486 12.3502 8.04986 11.7002 8.04986C11.7002 7.89986 12.0252 7.74986 12.1252 7.67486C12.3752 7.47486 12.3502 7.09986 12.3252 6.82486C12.3002 6.44986 12.2752 6.07486 12.2002 5.69986C12.1752 5.47486 12.0502 5.14986 12.2502 4.99986C12.3752 5.09986 12.5502 5.37486 12.4752 5.47486C12.3502 5.62486 12.4752 6.74986 12.5002 6.84986Z" fill="white"/>
<path d="M9.30117 7.97488C9.95117 7.59988 9.75117 6.79988 9.70117 6.17488C9.67617 5.99988 9.67617 5.82488 9.65117 5.64988C9.65117 5.52488 9.55117 5.34988 9.60117 5.22488C9.72617 4.89988 9.82617 5.19988 9.85117 5.39988C9.87617 5.52488 9.77617 5.54988 9.80117 5.64988C9.82617 5.84988 9.82617 6.04988 9.85117 6.24988C9.87617 6.57488 9.92617 6.89988 9.90117 7.19988C9.85117 7.67488 9.60117 8.19988 9.02617 8.09988C9.05117 8.04988 9.22617 8.02488 9.30117 7.97488ZM10.3512 6.72488C10.3762 6.97488 10.4762 7.42488 10.3512 7.64988C10.2512 7.79988 10.2512 7.54988 10.2262 7.52488C10.2012 7.32488 10.2012 7.12488 10.2012 6.89988C10.1512 6.34988 9.97617 5.79988 9.97617 5.27488C9.97617 4.59988 10.5512 5.64988 10.2262 5.59988C10.2512 5.97488 10.3012 6.34988 10.3512 6.72488ZM6.27617 5.44988C6.32617 5.57488 5.70117 5.89988 5.62617 5.89988C5.60117 5.77488 5.90117 5.59988 5.97617 5.54988C6.05117 5.47488 6.10117 5.47488 6.07617 5.37488C6.02617 5.27488 6.05117 5.09988 6.17617 5.04988C6.42617 4.97488 6.25117 5.34988 6.27617 5.44988ZM3.70117 7.67488C3.70117 7.87488 3.77617 7.77488 3.87617 7.72488C3.92617 7.82488 3.80117 8.09988 3.67617 7.97488C3.50117 7.79988 3.65117 7.39988 3.72617 7.22488C3.77617 7.34988 3.67617 7.54988 3.70117 7.67488ZM10.7512 6.12488C10.7762 6.02488 10.7012 5.92488 10.7762 5.82488C10.8762 5.69988 10.9762 5.84988 10.9262 5.89988C10.8762 5.94988 10.8012 5.84988 10.8012 5.99988C10.8012 6.07488 10.8512 6.22488 10.7762 6.29988C10.7262 6.27488 10.5012 5.94988 10.5262 5.89988C10.6262 5.79988 10.7262 6.09988 10.7512 6.12488ZM4.22617 6.54988C4.17617 6.64988 3.60117 6.97488 3.57617 6.89988C3.57617 6.82488 4.30117 6.39988 4.22617 6.54988ZM8.47617 7.82488C8.40117 8.04988 8.72617 7.84988 8.80117 7.82488C8.70117 7.99988 8.35117 8.14988 8.40117 7.82488C8.37617 7.82488 8.32617 7.84988 8.30117 7.84988C8.25117 7.79988 8.55117 7.59988 8.47617 7.82488ZM11.2012 7.74988C11.2762 7.74988 11.4012 7.97488 11.3262 8.02488C11.2762 8.07488 11.0512 8.09988 11.1762 7.99988C11.3262 7.84988 11.2012 7.74988 11.2012 7.74988ZM7.67617 6.47488C7.70117 6.42488 7.70117 6.34988 7.72617 6.29988C7.97617 6.49988 7.32617 6.82488 7.45117 6.34988C7.50117 6.39988 7.50117 6.47488 7.55117 6.49988C7.55117 6.44988 7.57617 6.37488 7.57617 6.32488C7.62617 6.37488 7.62617 6.44988 7.67617 6.47488ZM10.6012 6.79988C10.5262 6.69988 10.9762 6.42488 11.0512 6.37488C11.1012 6.44988 10.7512 6.72488 10.6012 6.79988ZM12.0012 5.79988C11.9512 5.64988 11.8012 5.34988 11.9512 5.22488C12.0512 5.29988 12.1012 5.67488 12.0012 5.79988ZM9.27617 5.29988C9.25117 5.24988 9.17617 5.19988 9.17617 5.12488C9.20117 5.02488 9.25117 5.04988 9.30117 5.09988C9.37617 5.19988 9.42617 5.47488 9.30117 5.54988C9.30117 5.47488 9.32617 5.37488 9.27617 5.29988ZM6.22617 5.97488C6.22617 6.12488 5.97617 6.27488 5.95117 6.07488C5.92617 5.99988 6.05117 5.72488 6.10117 5.79988C6.00117 6.02488 6.00117 6.09988 6.22617 5.97488Z" fill="white"/>
<path d="M9.34962 5.69965C9.44962 5.94965 9.39962 5.72465 9.49962 5.67465C9.67462 5.99965 9.12462 5.92465 9.24962 5.72465C9.27462 5.74965 9.29962 5.79965 9.29962 5.82465C9.32462 5.79965 9.32462 5.74965 9.34962 5.69965ZM10.9496 6.84965C10.8246 6.74965 10.9746 6.62465 11.0496 6.74965C11.0996 6.82465 11.0996 7.02465 10.9996 7.07465C10.9996 6.99965 11.0246 6.89965 10.9496 6.84965ZM5.82462 7.39965C5.82462 7.34965 5.79962 6.97465 5.87462 7.02465C5.97462 7.07465 5.94962 7.34965 5.82462 7.39965ZM4.77462 5.04965C4.79962 5.12465 4.82462 5.22465 4.87462 5.09965C5.07462 5.32465 4.37462 5.24965 4.62462 5.02465C4.62462 5.04965 4.67462 5.19965 4.77462 5.04965ZM7.32462 5.59965C7.32462 5.49965 7.17462 5.07465 7.29962 5.07465C7.44962 5.09965 7.42462 5.47465 7.32462 5.59965ZM3.82462 5.37465C3.74962 5.34965 3.87462 5.22465 3.82462 5.12465C3.77462 5.14965 3.72462 5.07465 3.77462 5.02465C3.97462 4.87465 3.89962 5.37465 3.82462 5.37465ZM10.2996 10.4497L10.1996 10.1497L10.0996 10.4497H4.62462C4.62462 10.4497 4.67462 10.8997 5.22462 10.8997H10.0746V11.2497H11.3996V10.4497H10.2996ZM11.1496 11.0497H10.2496V10.7997H11.1496V11.0497Z" fill="white"/>
</g>
<defs>
<clipPath id="clip0_591_19">
<rect width="16" height="16" fill="white"/>
</clipPath>
</defs>
</svg>
