<svg width="16" height="16" viewBox="0 0 16 16" fill="none" xmlns="http://www.w3.org/2000/svg">
<g clip-path="url(#clip0_591_100)">
<path d="M0.5 8C0.5 9.475 0.925 10.85 1.65 12H14.325C15.05 10.85 15.475 9.475 15.475 8C15.475 6.525 15.05 5.15 14.325 4H1.65C0.925 5.15 0.5 6.525 0.5 8Z" fill="#FFCE31"/>
<path d="M14.3504 4C13.0254 1.9 10.6754 0.5 8.00039 0.5C5.32539 0.5 2.97539 1.9 1.65039 4H14.3504ZM1.65039 12C2.97539 14.1 5.32539 15.5 8.00039 15.5C10.6754 15.5 13.0254 14.1 14.3504 12H1.65039Z" fill="#ED4C5C"/>
<path d="M2.30078 7.1748H3.10078V7.6248H2.30078V7.1748ZM2.30078 10.4748H3.12578V10.8998H2.30078V10.4748Z" fill="#C8B100"/>
<path d="M2.22461 9.7749C2.14961 9.8249 2.09961 9.8749 2.09961 9.8999C2.09961 9.9249 2.12461 9.9499 2.17461 9.9749C2.22461 9.9999 2.27461 10.0499 2.24961 10.0999C2.29961 10.0499 2.32461 9.9999 2.32461 9.9499C2.32461 9.8749 2.27461 9.7999 2.22461 9.7749Z" fill="#ED4C5C"/>
<path d="M2.42578 7.625H3.00078V10.475H2.42578V7.625Z" fill="white"/>
<path d="M3.5995 8.675C3.4745 8.625 3.2495 8.575 2.9995 8.575C2.9245 8.575 2.8245 8.575 2.7245 8.6C2.3745 8.65 2.0995 8.8 2.1245 8.9L1.9995 8.625C1.9745 8.5 2.2745 8.35 2.6495 8.275C2.7745 8.25 2.8995 8.25 2.9995 8.25C3.2495 8.25 3.4745 8.275 3.5995 8.325V8.675Z" fill="#ED4C5C"/>
<path d="M2.42539 9.05C2.27539 9.05 2.15039 9 2.15039 8.925C2.15039 8.875 2.20039 8.8 2.30039 8.75H2.45039L2.42539 9.05ZM3.00039 8.825C3.10039 8.85 3.17539 8.875 3.22539 8.9C3.25039 8.925 3.15039 9.025 3.00039 9.1V8.825Z" fill="#ED4C5C"/>
<path d="M2.04926 9.5999C2.02426 9.5499 2.19926 9.4499 2.42426 9.3749C2.52426 9.3499 2.59926 9.2999 2.72426 9.2499C3.02426 9.1249 3.27426 8.9499 3.22426 8.8999L3.27426 9.1999C3.29926 9.2499 3.09926 9.3999 2.79926 9.5499C2.69926 9.5999 2.52426 9.6749 2.42426 9.6999C2.24926 9.7499 2.09926 9.8499 2.09926 9.8749L2.04926 9.5999Z" fill="#ED4C5C"/>
<path d="M7.67539 7.1748H8.47539V7.6248H7.67539V7.1748ZM7.65039 10.4748H8.47539V10.8998H7.65039V10.4748Z" fill="#C8B100"/>
<path d="M8.54922 9.7749C8.62422 9.8249 8.67422 9.8749 8.67422 9.8999C8.67422 9.9249 8.64922 9.9499 8.59922 9.9749C8.54922 10.0249 8.49922 10.0999 8.52422 10.1249C8.47422 10.0749 8.44922 10.0249 8.44922 9.9749C8.44922 9.8749 8.49922 9.7999 8.54922 9.7749Z" fill="#ED4C5C"/>
<path d="M7.77539 7.625H8.35039V10.475H7.77539V7.625Z" fill="white"/>
<path d="M7.17383 8.675C7.29883 8.625 7.52383 8.575 7.77383 8.575C7.84883 8.575 7.94883 8.575 8.04883 8.6C8.39883 8.65 8.67383 8.8 8.64883 8.9L8.77383 8.6C8.79883 8.475 8.49883 8.325 8.12383 8.25H7.77383C7.52383 8.25 7.29883 8.275 7.17383 8.325V8.675Z" fill="#ED4C5C"/>
<path d="M8.34875 9.05C8.49875 9.05 8.62375 9 8.62375 8.925C8.62375 8.875 8.57375 8.8 8.47375 8.75H8.32375L8.34875 9.05ZM7.77375 8.825C7.67375 8.85 7.59875 8.875 7.54875 8.9C7.52375 8.925 7.62375 9.025 7.77375 9.1V8.825Z" fill="#ED4C5C"/>
<path d="M8.72422 9.6002C8.74922 9.5502 8.57422 9.4502 8.34922 9.3752C8.24922 9.3502 8.17422 9.3002 8.04922 9.2502C7.74922 9.1252 7.49922 8.9502 7.54922 8.9002L7.49922 9.2002C7.47422 9.2502 7.67422 9.4002 7.97422 9.5502C8.07422 9.6002 8.24922 9.6752 8.34922 9.7002C8.52422 9.7502 8.67422 9.8752 8.64922 9.9002L8.72422 9.6002ZM5.37422 5.5752C5.84922 5.5752 6.82422 5.6752 7.17422 6.0252C6.79922 6.9252 6.19922 6.5502 5.37422 6.5502C4.57422 6.5502 3.94922 6.9252 3.57422 6.0252C3.92422 5.6752 4.87422 5.5752 5.37422 5.5752Z" fill="#ED4C5C"/>
<path d="M6.59922 6.575C6.29922 6.4 5.84922 6.375 5.37422 6.375C4.89922 6.375 4.44922 6.425 4.14922 6.575L4.24922 7C4.52422 7.075 4.92422 7.125 5.37422 7.125C5.82422 7.125 6.19922 7.075 6.49922 7L6.59922 6.575ZM7.02422 5.5C6.92422 5.425 6.72422 5.35 6.54922 5.35C6.47422 5.35 6.39922 5.35 6.32422 5.375C6.32422 5.375 6.17422 5.175 5.82422 5.175C5.69922 5.175 5.59922 5.2 5.49922 5.25V5.225C5.47422 5.175 5.42422 5.125 5.37422 5.125C5.32422 5.125 5.24922 5.2 5.24922 5.25V5.275C5.14922 5.225 5.04922 5.2 4.92422 5.2C4.57422 5.2 4.42422 5.425 4.42422 5.4C4.34922 5.375 4.27422 5.375 4.19922 5.375C3.04922 5.375 3.62422 6.15 3.62422 6.15L3.74922 6C3.47422 5.65 3.72422 5.45 4.22422 5.45C4.29922 5.45 4.34922 5.45 4.39922 5.475C4.22422 5.725 4.54922 5.95 4.54922 5.95L4.62422 5.825C4.44922 5.7 4.42422 5.275 4.92422 5.275C5.04922 5.275 5.14922 5.3 5.24922 5.375C5.24922 5.4 5.22422 5.75 5.19922 5.8L5.39922 5.975L5.59922 5.8C5.57422 5.725 5.54922 5.4 5.54922 5.375C5.62422 5.325 5.74922 5.275 5.87422 5.275C6.39922 5.275 6.39922 5.7 6.17422 5.825L6.24922 5.95C6.24922 5.95 6.52422 5.725 6.39922 5.475C6.44922 5.475 6.52422 5.45 6.57422 5.45C7.17422 5.45 7.19922 5.9 7.04922 6L7.14922 6.15C7.09922 6.15 7.37422 5.8 7.02422 5.5Z" fill="#C8B100"/>
<path d="M5.22461 5.025C5.22461 4.95 5.29961 4.875 5.37461 4.875C5.47461 4.875 5.52461 4.95 5.52461 5.025C5.52461 5.1 5.44961 5.175 5.37461 5.175C5.29961 5.175 5.22461 5.1 5.22461 5.025Z" fill="#005BBF"/>
<path d="M5.32461 4.6001V4.6751H5.24961V4.7501H5.32461V5.0001H5.22461V5.0751H5.52461L5.54961 5.0251L5.52461 5.0001H5.42461V4.7501H5.49961V4.6751H5.42461V4.6001H5.32461Z" fill="#C8B100"/>
<path d="M5.37461 7.0752C4.97461 7.0752 4.62461 7.0252 4.34961 6.9502C4.62461 6.8752 4.97461 6.8252 5.37461 6.8252C5.77461 6.8252 6.12461 6.8752 6.39961 6.9502C6.14961 7.0252 5.77461 7.0752 5.37461 7.0752Z" fill="#ED4C5C"/>
<path d="M5.39961 11.3999C4.92461 11.3999 4.47461 11.2749 4.07461 11.0999C3.77461 10.9499 3.59961 10.6749 3.59961 10.3499V9.1499H7.19961V10.3499C7.19961 10.6749 6.99961 10.9749 6.72461 11.0999C6.32461 11.2999 5.87461 11.3999 5.39961 11.3999ZM5.37461 7.1499H7.17461V9.1499H5.37461V7.1499Z" fill="white"/>
<path d="M5.39961 10.3499C5.39961 10.8249 4.99961 11.1999 4.49961 11.1999C3.99961 11.1999 3.59961 10.8249 3.59961 10.3499V9.1499H5.39961V10.3499Z" fill="#ED4C5C"/>
<path d="M3.97422 11.0501C4.02422 11.0751 4.09922 11.1251 4.19922 11.1501V9.1001H3.99922L3.97422 11.0501ZM3.57422 10.3251C3.57422 10.5751 3.67422 10.7751 3.77422 10.8751V9.1001H3.57422V10.3251Z" fill="#C8B100"/>
<path d="M4.375 11.2001H4.575V9.1001H4.375V11.2001Z" fill="#C7B500"/>
<path d="M4.77539 11.1501C4.85039 11.1251 4.95039 11.0751 5.00039 11.0501V9.1001H4.80039L4.77539 11.1501Z" fill="#C8B100"/>
<path d="M3.57422 7.1499H5.37422V9.1499H3.57422V7.1499Z" fill="#ED4C5C"/>
<path d="M5.19922 10.875C5.29922 10.8 5.37422 10.625 5.39922 10.425V9.125H5.19922V10.875Z" fill="#C8B100"/>
<path d="M7.19961 9.15022V10.3502C7.19961 10.8252 6.79961 11.2002 6.29961 11.2002C5.79961 11.2002 5.39961 10.8252 5.39961 10.3502V9.15022H7.19961ZM6.54961 7.50022C6.62461 7.65022 6.62461 8.02522 6.39961 7.95022C6.44961 7.97522 6.47461 8.15022 6.54961 8.25022C6.67461 8.40022 6.82461 8.27522 6.79961 8.10022C6.74961 7.82522 6.77461 7.65022 6.82461 7.37522C6.82461 7.40022 6.94961 7.40022 6.99961 7.35022C6.97461 7.42522 6.94961 7.52522 6.99961 7.52522C6.94961 7.60022 6.82461 7.72522 6.79961 7.80022C6.77461 7.97522 7.04961 8.30022 6.74961 8.37522C6.54961 8.42522 6.67461 8.57522 6.74961 8.65022C6.74961 8.65022 6.64961 8.97522 6.69961 8.95022C6.49961 9.02522 6.54961 8.85022 6.54961 8.85022C6.64961 8.55022 6.37461 8.52522 6.39961 8.47522C6.14961 8.45022 6.42461 8.70022 6.19961 8.70022C6.14961 8.70022 6.04961 8.75022 6.04961 8.75022C5.77461 8.72522 5.92461 8.47522 6.02461 8.50022C6.09961 8.52522 6.17461 8.65022 6.17461 8.47522C6.17461 8.47522 6.04961 8.27522 6.37461 8.27522C6.24961 8.27522 6.17461 8.17522 6.12461 8.05022C6.07461 8.07522 5.99961 8.20022 5.72461 8.22522C5.72461 8.22522 5.64961 7.95022 5.72461 8.00022C5.82461 8.05022 5.87461 8.05022 5.97461 7.95022C5.92461 7.87522 5.62461 7.77522 5.67461 7.60022C5.67461 7.55022 5.82461 7.47522 5.82461 7.47522C5.79961 7.60022 5.87461 7.72522 6.02461 7.72522C6.22461 7.75022 6.14961 7.67522 6.17461 7.62522C6.19961 7.57522 6.34961 7.65022 6.29961 7.52522C6.29961 7.50022 6.12461 7.47522 6.17461 7.40022C6.27461 7.27522 6.42461 7.37522 6.54961 7.50022ZM5.39961 11.1502L5.34961 11.0252L5.39961 10.8752L5.44961 11.0252L5.39961 11.1502Z" fill="#ED4C5C"/>
<path d="M4.12461 7.575V7.7H4.17461V7.8H4.04961V8.05H4.12461V8.6H3.97461V8.875H4.99961V8.6H4.87461V8.05H4.92461V7.8H4.79961V7.7H4.87461V7.575H4.62461V7.7H4.67461V7.8H4.54961V7.5H4.62461V7.375H4.34961V7.5H4.42461V7.8H4.29961V7.7H4.34961V7.575H4.12461ZM6.94961 10.65V9.4H5.64961V10.65L6.24961 10.925H6.32461L6.94961 10.65ZM6.24961 9.5V9.925L5.82461 9.5H6.24961ZM5.72461 9.525L6.22461 10.025L5.72461 10.525V9.525ZM5.77461 10.625L6.24961 10.15V10.85L5.77461 10.625ZM6.32461 10.825V10.125L6.79961 10.6L6.32461 10.825ZM6.84961 10.525L6.34961 10.025L6.84961 9.525V10.525ZM6.32461 9.5H6.74961L6.32461 9.925V9.5Z" fill="#C8B100"/>
<path d="M4.80078 9.1251C4.80078 8.7501 5.05078 8.4751 5.37578 8.4751C5.70078 8.4751 5.95078 8.7751 5.95078 9.1251C5.95078 9.4751 5.70078 9.7751 5.37578 9.7751C5.05078 9.7751 4.80078 9.5001 4.80078 9.1251Z" fill="#ED4C5C"/>
<path d="M4.97461 9.1249C4.97461 8.8499 5.14961 8.6499 5.37461 8.6499C5.59961 8.6499 5.77461 8.8749 5.77461 9.1249C5.77461 9.3999 5.59961 9.5999 5.37461 9.5999C5.17461 9.6249 4.97461 9.3999 4.97461 9.1249Z" fill="#005BBF"/>
<path d="M5.19961 8.7998L5.09961 9.0748L5.17461 9.0998L5.12461 9.1998H5.27461L5.22461 9.0998L5.29961 9.0748L5.19961 8.7998ZM5.57461 8.7998L5.47461 9.0748L5.54961 9.0998L5.49961 9.1998H5.64961L5.62461 9.0998L5.69961 9.0748L5.57461 8.7998ZM5.39961 9.1248L5.27461 9.3998L5.34961 9.4248L5.32461 9.5248H5.44961L5.42461 9.4248L5.49961 9.3998L5.39961 9.1248Z" fill="#C8B100"/>
</g>
<defs>
<clipPath id="clip0_591_100">
<rect width="16" height="16" fill="white"/>
</clipPath>
</defs>
</svg>
