<svg width="16" height="16" viewBox="0 0 16 16" fill="none" xmlns="http://www.w3.org/2000/svg">
<g clip-path="url(#clip0_591_40)">
<path d="M7.95039 0.5C4.70039 0.5 1.92539 2.6 0.900391 5.5H15.0504C14.0004 2.6 11.2254 0.5 7.95039 0.5Z" fill="#F2B200"/>
<path d="M7.95039 15.5C11.2254 15.5 14.0004 13.425 15.0254 10.5H0.900391C1.92539 13.425 4.70039 15.5 7.95039 15.5Z" fill="#83BF4F"/>
<path d="M0.899609 5.5C0.624609 6.275 0.474609 7.125 0.474609 8C0.474609 8.875 0.624609 9.725 0.899609 10.5H15.0496C15.3246 9.725 15.4746 8.875 15.4746 8C15.4746 7.125 15.3246 6.275 15.0496 5.5H0.899609Z" fill="white"/>
<path d="M7.94922 10C9.05379 10 9.94922 9.10457 9.94922 8C9.94922 6.89543 9.05379 6 7.94922 6C6.84465 6 5.94922 6.89543 5.94922 8C5.94922 9.10457 6.84465 10 7.94922 10Z" fill="#428BC1"/>
<path d="M7.94922 9.75C8.91572 9.75 9.69922 8.9665 9.69922 8C9.69922 7.0335 8.91572 6.25 7.94922 6.25C6.98272 6.25 6.19922 7.0335 6.19922 8C6.19922 8.9665 6.98272 9.75 7.94922 9.75Z" fill="white"/>
<path d="M7.29883 6.5C7.36786 6.5 7.42383 6.44404 7.42383 6.375C7.42383 6.30596 7.36786 6.25 7.29883 6.25C7.22979 6.25 7.17383 6.30596 7.17383 6.375C7.17383 6.44404 7.22979 6.5 7.29883 6.5Z" fill="#428BC1"/>
<path d="M6.90039 6.7251C6.96943 6.7251 7.02539 6.66913 7.02539 6.6001C7.02539 6.53106 6.96943 6.4751 6.90039 6.4751C6.83136 6.4751 6.77539 6.53106 6.77539 6.6001C6.77539 6.66913 6.83136 6.7251 6.90039 6.7251Z" fill="#428BC1"/>
<path d="M6.57422 7.05029C6.64325 7.05029 6.69922 6.99433 6.69922 6.92529C6.69922 6.85626 6.64325 6.80029 6.57422 6.80029C6.50518 6.80029 6.44922 6.85626 6.44922 6.92529C6.44922 6.99433 6.50518 7.05029 6.57422 7.05029Z" fill="#428BC1"/>
<path d="M6.34961 7.4502C6.41864 7.4502 6.47461 7.39423 6.47461 7.3252C6.47461 7.25616 6.41864 7.2002 6.34961 7.2002C6.28057 7.2002 6.22461 7.25616 6.22461 7.3252C6.22461 7.39423 6.28057 7.4502 6.34961 7.4502Z" fill="#428BC1"/>
<path d="M6.22461 7.90039C6.29364 7.90039 6.34961 7.84443 6.34961 7.77539C6.34961 7.70636 6.29364 7.65039 6.22461 7.65039C6.15557 7.65039 6.09961 7.70636 6.09961 7.77539C6.09961 7.84443 6.15557 7.90039 6.22461 7.90039Z" fill="#428BC1"/>
<path d="M6.22461 8.3501C6.29364 8.3501 6.34961 8.29413 6.34961 8.2251C6.34961 8.15606 6.29364 8.1001 6.22461 8.1001C6.15557 8.1001 6.09961 8.15606 6.09961 8.2251C6.09961 8.29413 6.15557 8.3501 6.22461 8.3501Z" fill="#428BC1"/>
<path d="M6.34961 8.80029C6.41864 8.80029 6.47461 8.74433 6.47461 8.67529C6.47461 8.60626 6.41864 8.55029 6.34961 8.55029C6.28057 8.55029 6.22461 8.60626 6.22461 8.67529C6.22461 8.74433 6.28057 8.80029 6.34961 8.80029Z" fill="#428BC1"/>
<path d="M6.57422 9.2002C6.64325 9.2002 6.69922 9.14423 6.69922 9.0752C6.69922 9.00616 6.64325 8.9502 6.57422 8.9502C6.50518 8.9502 6.44922 9.00616 6.44922 9.0752C6.44922 9.14423 6.50518 9.2002 6.57422 9.2002Z" fill="#428BC1"/>
<path d="M6.90039 9.52539C6.96943 9.52539 7.02539 9.46943 7.02539 9.40039C7.02539 9.33136 6.96943 9.27539 6.90039 9.27539C6.83136 9.27539 6.77539 9.33136 6.77539 9.40039C6.77539 9.46943 6.83136 9.52539 6.90039 9.52539Z" fill="#428BC1"/>
<path d="M7.29883 9.75C7.36786 9.75 7.42383 9.69404 7.42383 9.625C7.42383 9.55596 7.36786 9.5 7.29883 9.5C7.22979 9.5 7.17383 9.55596 7.17383 9.625C7.17383 9.69404 7.22979 9.75 7.29883 9.75Z" fill="#428BC1"/>
<path d="M7.72461 9.8501C7.79364 9.8501 7.84961 9.79413 7.84961 9.7251C7.84961 9.65606 7.79364 9.6001 7.72461 9.6001C7.65557 9.6001 7.59961 9.65606 7.59961 9.7251C7.59961 9.79413 7.65557 9.8501 7.72461 9.8501Z" fill="#428BC1"/>
<path d="M8.07422 9.7501C8.07422 9.6751 8.12422 9.6251 8.17422 9.6001C8.24922 9.6001 8.29922 9.6501 8.32422 9.7001C8.32422 9.7751 8.27422 9.8251 8.22422 9.8501C8.12422 9.8751 8.07422 9.8251 8.07422 9.7501Z" fill="#428BC1"/>
<path d="M8.625 9.75C8.69404 9.75 8.75 9.69404 8.75 9.625C8.75 9.55596 8.69404 9.5 8.625 9.5C8.55596 9.5 8.5 9.55596 8.5 9.625C8.5 9.69404 8.55596 9.75 8.625 9.75Z" fill="#428BC1"/>
<path d="M9.02539 9.52539C9.09443 9.52539 9.15039 9.46943 9.15039 9.40039C9.15039 9.33136 9.09443 9.27539 9.02539 9.27539C8.95636 9.27539 8.90039 9.33136 8.90039 9.40039C8.90039 9.46943 8.95636 9.52539 9.02539 9.52539Z" fill="#428BC1"/>
<path d="M9.34961 9.2002C9.41864 9.2002 9.47461 9.14423 9.47461 9.0752C9.47461 9.00616 9.41864 8.9502 9.34961 8.9502C9.28057 8.9502 9.22461 9.00616 9.22461 9.0752C9.22461 9.14423 9.28057 9.2002 9.34961 9.2002Z" fill="#428BC1"/>
<path d="M9.57422 8.80029C9.64325 8.80029 9.69922 8.74433 9.69922 8.67529C9.69922 8.60626 9.64325 8.55029 9.57422 8.55029C9.50518 8.55029 9.44922 8.60626 9.44922 8.67529C9.44922 8.74433 9.50518 8.80029 9.57422 8.80029Z" fill="#428BC1"/>
<path d="M9.69922 8.3501C9.76825 8.3501 9.82422 8.29413 9.82422 8.2251C9.82422 8.15606 9.76825 8.1001 9.69922 8.1001C9.63018 8.1001 9.57422 8.15606 9.57422 8.2251C9.57422 8.29413 9.63018 8.3501 9.69922 8.3501Z" fill="#428BC1"/>
<path d="M9.69883 7.90039C9.62383 7.90039 9.57383 7.85039 9.54883 7.80039C9.54883 7.72539 9.59883 7.67539 9.64883 7.65039C9.72383 7.65039 9.77383 7.70039 9.79883 7.75039C9.82383 7.82539 9.77383 7.87539 9.69883 7.90039Z" fill="#428BC1"/>
<path d="M9.57422 7.4502C9.64325 7.4502 9.69922 7.39423 9.69922 7.3252C9.69922 7.25616 9.64325 7.2002 9.57422 7.2002C9.50518 7.2002 9.44922 7.25616 9.44922 7.3252C9.44922 7.39423 9.50518 7.4502 9.57422 7.4502Z" fill="#428BC1"/>
<path d="M9.34961 7.05029C9.41864 7.05029 9.47461 6.99433 9.47461 6.92529C9.47461 6.85626 9.41864 6.80029 9.34961 6.80029C9.28057 6.80029 9.22461 6.85626 9.22461 6.92529C9.22461 6.99433 9.28057 7.05029 9.34961 7.05029Z" fill="#428BC1"/>
<path d="M9.02539 6.7251C9.09443 6.7251 9.15039 6.66913 9.15039 6.6001C9.15039 6.53106 9.09443 6.4751 9.02539 6.4751C8.95636 6.4751 8.90039 6.53106 8.90039 6.6001C8.90039 6.66913 8.95636 6.7251 9.02539 6.7251Z" fill="#428BC1"/>
<path d="M8.74961 6.42516C8.72461 6.50016 8.64961 6.52516 8.57461 6.50016C8.49961 6.47516 8.47461 6.40016 8.49961 6.32516C8.52461 6.25016 8.59961 6.22516 8.67461 6.25016C8.74961 6.30016 8.77461 6.37516 8.74961 6.42516ZM8.29961 6.27516C8.29961 6.35016 8.22461 6.40016 8.14961 6.37516C8.07461 6.37516 8.02461 6.30016 8.04961 6.22516C8.04961 6.15016 8.12461 6.10016 8.19961 6.12516C8.27461 6.15016 8.32461 6.22516 8.29961 6.27516ZM7.84961 6.25016C7.84961 6.32516 7.79961 6.37516 7.74961 6.40016C7.67461 6.40016 7.62461 6.35016 7.59961 6.30016C7.59961 6.22516 7.64961 6.17516 7.69961 6.15016C7.77461 6.12516 7.84961 6.17516 7.84961 6.25016Z" fill="#428BC1"/>
<path d="M7.94922 8.375C8.15633 8.375 8.32422 8.20711 8.32422 8C8.32422 7.79289 8.15633 7.625 7.94922 7.625C7.74211 7.625 7.57422 7.79289 7.57422 8C7.57422 8.20711 7.74211 8.375 7.94922 8.375Z" fill="#428BC1"/>
<path d="M7.95 6.25L7.9 7.325L7.95 8L8.025 7.325L7.95 6.25ZM7.5 6.3L7.725 7.375L7.95 8L7.85 7.325L7.5 6.3Z" fill="#428BC1"/>
<path d="M7.07461 6.4751L7.57461 7.4501L7.94961 8.0001L7.67461 7.3751L7.07461 6.4751ZM6.72461 6.7501L7.44961 7.5751L7.94961 8.0001L7.52461 7.4751L6.72461 6.7501Z" fill="#428BC1"/>
<path d="M6.44922 7.125L7.34922 7.725L7.94922 8L7.39922 7.6L6.44922 7.125Z" fill="#428BC1"/>
<path d="M6.27422 7.55029L7.29922 7.87529L7.94922 8.00029L7.32422 7.77529L6.27422 7.55029ZM6.19922 8.00029L7.29922 8.05029L7.94922 8.00029L7.29922 7.95029L6.19922 8.00029Z" fill="#428BC1"/>
<path d="M6.27539 8.45L7.32539 8.225L7.95039 8L7.30039 8.125L6.27539 8.45ZM6.45039 8.875L7.40039 8.4L7.95039 8L7.35039 8.275L6.45039 8.875Z" fill="#428BC1"/>
<path d="M6.72461 9.225L7.52461 8.525L7.94961 8L7.44961 8.425L6.72461 9.225ZM7.07461 9.525L7.67461 8.6L7.94961 8L7.57461 8.55L7.07461 9.525Z" fill="#428BC1"/>
<path d="M7.5 9.7L7.85 8.675L7.95 8L7.725 8.625L7.5 9.7ZM7.95 9.75L8.025 8.675L7.95 8L7.9 8.675L7.95 9.75ZM8.4 9.7L8.2 8.625L7.95 8L8.075 8.675L8.4 9.7Z" fill="#428BC1"/>
<path d="M8.82422 9.525L8.34922 8.55L7.94922 8L8.24922 8.625L8.82422 9.525ZM9.19922 9.225L8.47422 8.425L7.94922 8L8.39922 8.525L9.19922 9.225Z" fill="#428BC1"/>
<path d="M9.47422 8.87529L8.57422 8.27529L7.94922 8.00029L8.49922 8.40029L9.47422 8.87529ZM9.64922 8.45029L8.62422 8.12529L7.94922 8.00029L8.59922 8.22529L9.64922 8.45029ZM9.69922 8.00029L8.62422 7.92529L7.94922 8.00029L8.62422 8.05029L9.69922 8.00029ZM9.64922 7.55029L8.59922 7.77529L7.94922 8.00029L8.62422 7.87529L9.64922 7.55029Z" fill="#428BC1"/>
<path d="M9.47422 7.12539L8.49922 7.60039L7.94922 8.00039L8.57422 7.72539L9.47422 7.12539ZM9.19922 6.77539L8.39922 7.47539L7.94922 8.00039L8.47422 7.57539L9.19922 6.77539Z" fill="#428BC1"/>
<path d="M8.82422 6.4751L8.24922 7.4001L7.94922 8.0001L8.34922 7.4501L8.82422 6.4751Z" fill="#428BC1"/>
<path d="M8.42422 6.30029L8.07422 7.32529L7.94922 8.00029L8.19922 7.37529L8.42422 6.30029Z" fill="#428BC1"/>
</g>
<defs>
<clipPath id="clip0_591_40">
<rect width="16" height="16" fill="white"/>
</clipPath>
</defs>
</svg>
