<svg width="16" height="16" viewBox="0 0 16 16" fill="none" xmlns="http://www.w3.org/2000/svg">
<g clip-path="url(#clip0_591_6)">
<path d="M5.50078 15.075V11.625L2.92578 13.525C3.65078 14.2 4.52578 14.725 5.50078 15.075ZM10.5008 15.075C11.4758 14.725 12.3508 14.2 13.0758 13.525L10.5008 11.6V15.075ZM0.925781 10.5C1.00078 10.75 1.10078 10.975 1.22578 11.225L2.20078 10.5H0.925781ZM13.8008 10.5L14.7758 11.225C14.8758 11 14.9758 10.75 15.0758 10.5H13.8008Z" fill="#2A5F9E"/>
<path d="M5.87539 9.5H0.650391C0.725391 9.85 0.825391 10.175 0.925391 10.5H2.20039L1.22539 11.225C1.42539 11.65 1.65039 12.025 1.92539 12.4L4.50039 10.5H5.50039V11L2.57539 13.15L2.92539 13.5L5.50039 11.625V15.075C5.82539 15.2 6.15039 15.275 6.50039 15.35V9.5H5.87539ZM15.3504 9.5H9.50039V15.35C9.85039 15.275 10.1754 15.175 10.5004 15.075V11.625L13.0754 13.5C13.4254 13.175 13.7254 12.825 14.0254 12.45L11.3504 10.5H13.0504L14.5754 11.625C14.6504 11.5 14.7254 11.35 14.7754 11.225L13.8004 10.5H15.0754C15.1754 10.175 15.2754 9.85 15.3504 9.5Z" fill="white"/>
<path d="M1.92578 12.4C2.12578 12.675 2.32578 12.925 2.55078 13.175L5.50078 11.025V10.525H4.50078L1.92578 12.4ZM11.3758 10.5L14.0508 12.45C14.1508 12.325 14.2258 12.2 14.3258 12.075C14.3508 12.05 14.3508 12.025 14.3758 12.025C14.4508 11.9 14.5508 11.75 14.6258 11.625L13.0508 10.5H11.3758Z" fill="#ED4C5C"/>
<path d="M10.5008 0.924805V4.3748L13.0758 2.4748C12.3508 1.7998 11.4758 1.2748 10.5008 0.924805ZM5.50078 0.924805C4.52578 1.2748 3.65078 1.7998 2.92578 2.4748L5.50078 4.3998V0.924805ZM15.0758 5.4998C15.0008 5.2498 14.9008 5.0248 14.7758 4.7748L13.8008 5.4998H15.0758ZM2.20078 5.4998L1.22578 4.7748C1.12578 5.0248 1.02578 5.2498 0.925781 5.4998H2.20078Z" fill="#2A5F9E"/>
<path d="M10.1254 6.4999H15.3254C15.2504 6.1499 15.1504 5.8249 15.0504 5.4999H13.7754L14.7504 4.7749C14.5504 4.3499 14.3254 3.9749 14.0504 3.5999L11.5004 5.4999H10.5004V4.9999L13.4254 2.8499L13.0754 2.4999L10.5004 4.3749V0.924902C10.1754 0.799902 9.85039 0.724902 9.50039 0.649902V6.4999H10.1254ZM0.650391 6.4999H6.50039V0.649902C6.15039 0.724902 5.82539 0.824902 5.50039 0.924902V4.3749L2.92539 2.4999C2.57539 2.8249 2.27539 3.1749 1.97539 3.5499L4.65039 5.4999H2.95039L1.42539 4.3749C1.35039 4.4999 1.27539 4.6499 1.22539 4.7749L2.20039 5.4999H0.925391C0.825391 5.8249 0.725391 6.1499 0.650391 6.4999Z" fill="white"/>
<path d="M14.0754 3.6002C13.8754 3.3252 13.6754 3.0752 13.4504 2.8252L10.5004 4.9752V5.4752H11.5004L14.0754 3.6002ZM4.62539 5.5002L1.97539 3.5502C1.87539 3.6752 1.80039 3.8002 1.70039 3.9252C1.67539 3.9502 1.67539 3.9752 1.65039 3.9752C1.57539 4.1002 1.47539 4.2502 1.40039 4.3752L2.92539 5.5002H4.62539Z" fill="#ED4C5C"/>
<path d="M15.35 6.5H9.5V0.65C9.025 0.55 8.525 0.5 8 0.5C7.2125 0.5 6.975 0.55 6.5 0.65V6.5H0.65C0.55 6.975 0.5 7.475 0.5 8C0.5 8.7875 0.55 9.025 0.65 9.5H6.5V15.35C6.975 15.45 7.475 15.5 8 15.5C8.7875 15.5 9.025 15.45 9.5 15.35V9.5H15.35C15.45 9.025 15.5 8.525 15.5 8C15.5 7.2125 15.45 6.975 15.35 6.5Z" fill="#ED4C5C"/>
</g>
<defs>
<clipPath id="clip0_591_6">
<rect width="16" height="16" fill="white"/>
</clipPath>
</defs>
</svg>
