<svg width="16" height="16" viewBox="0 0 16 16" fill="none" xmlns="http://www.w3.org/2000/svg">
<g clip-path="url(#clip0_591_93)">
<path d="M0.474609 7.99981C0.474609 11.2748 2.57461 14.0498 5.47461 15.0748V0.924805C2.57461 1.9498 0.474609 4.7248 0.474609 7.99981Z" fill="#428BC1"/>
<path d="M15.4746 7.99981C15.4746 4.7248 13.3996 1.9498 10.4746 0.924805V15.0748C13.3996 14.0498 15.4746 11.2748 15.4746 7.99981Z" fill="#ED4C5C"/>
<path d="M5.47461 15.075C6.24961 15.35 7.09961 15.5 7.97461 15.5C8.84961 15.5 9.69961 15.35 10.4746 15.075V0.925C9.69961 0.65 8.87461 0.5 7.97461 0.5C7.07461 0.5 6.24961 0.65 5.47461 0.925V15.075Z" fill="white"/>
</g>
<defs>
<clipPath id="clip0_591_93">
<rect width="16" height="16" fill="white"/>
</clipPath>
</defs>
</svg>
