<svg width="16" height="16" viewBox="0 0 16 16" fill="none" xmlns="http://www.w3.org/2000/svg">
<g clip-path="url(#clip0_591_247)">
<path d="M13.1004 2.5C11.7504 1.25 9.97539 0.5 8.00039 0.5C6.02539 0.5 4.25039 1.25 2.90039 2.5H13.1004ZM2.90039 13.5C4.25039 14.75 6.02539 15.5 8.00039 15.5C9.97539 15.5 11.7504 14.75 13.1004 13.5H2.90039Z" fill="#ED4C5C"/>
<path d="M0.5 8C0.5 9.075 0.725 10.075 1.125 11H14.875C15.275 10.075 15.5 9.075 15.5 8C15.5 6.925 15.275 5.925 14.875 5H1.125C0.725 5.925 0.5 6.925 0.5 8Z" fill="#2A5F9E"/>
<path d="M2.89961 13.5H13.0746C13.8246 12.8 14.4496 11.95 14.8496 11H1.09961C1.54961 11.95 2.14961 12.8 2.89961 13.5ZM13.0996 2.5H2.89961C2.14961 3.2 1.52461 4.05 1.12461 5H14.8746C14.4496 4.05 13.8496 3.2 13.0996 2.5Z" fill="#F9F9F9"/>
</g>
<defs>
<clipPath id="clip0_591_247">
<rect width="16" height="16" fill="white"/>
</clipPath>
</defs>
</svg>
