<svg width="16" height="16" viewBox="0 0 16 16" fill="none" xmlns="http://www.w3.org/2000/svg">
<g clip-path="url(#clip0_591_244)">
<path d="M15.2992 6.25C14.4992 2.95 11.5492 0.5 7.99922 0.5H7.74922V6.25H15.2992ZM4.24922 1.5C2.49922 2.525 1.19922 4.225 0.699219 6.25H4.24922V1.5ZM0.699219 9.75C1.19922 11.775 2.49922 13.475 4.24922 14.5V9.75H0.699219ZM7.74922 15.5H7.99922C11.5492 15.5 14.4992 13.05 15.2992 9.75H7.74922V15.5Z" fill="#428BC1"/>
<path d="M15.3 6.25H7.75V0.5C6.475 0.55 5.275 0.9 4.25 1.5V6.25H0.7C0.575 6.8 0.5 7.4 0.5 8C0.5 8.6 0.575 9.2 0.7 9.75H4.25V14.5C5.275 15.1 6.475 15.45 7.75 15.5V9.75H15.3C15.425 9.2 15.5 8.6 15.5 8C15.5 7.4 15.425 6.8 15.3 6.25Z" fill="#FFE62E"/>
</g>
<defs>
<clipPath id="clip0_591_244">
<rect width="16" height="16" fill="white"/>
</clipPath>
</defs>
</svg>
