<svg width="16" height="16" viewBox="0 0 16 16" fill="none" xmlns="http://www.w3.org/2000/svg">
<g clip-path="url(#clip0_591_199)">
<path d="M8.00078 0.5C4.72578 0.5 1.95078 2.575 0.925781 5.5H15.0758C14.0508 2.575 11.2758 0.5 8.00078 0.5Z" fill="#83BF4F"/>
<path d="M8.00078 15.5C11.2758 15.5 14.0508 13.425 15.0758 10.5H0.925781C1.95078 13.425 4.72578 15.5 8.00078 15.5Z" fill="#ED4C5C"/>
<path d="M0.925 5.5C0.65 6.275 0.5 7.125 0.5 8C0.5 8.875 0.65 9.725 0.925 10.5H15.075C15.35 9.725 15.5 8.875 15.5 8C15.5 7.125 15.35 6.275 15.075 5.5H0.925Z" fill="#F9F9F9"/>
<path d="M14.8504 11.0747L14.7754 11.2247H14.8504V11.0747ZM1.22539 11.2247L1.15039 11.0747V11.2247H1.22539ZM1.40039 4.69971H1.27539C1.25039 4.72471 1.22539 4.74971 1.22539 4.77471H1.40039V4.69971Z" fill="white"/>
<path d="M1.40117 5.2498V5.1748H1.15117V5.0248H1.52617V5.2498H2.07617V4.6748H2.00117V5.1498H1.85117V4.6748H1.77617V5.1498H1.62617V4.6748H1.55117V4.9248H1.15117C1.12617 4.9748 1.10117 5.0498 1.07617 5.0998V5.2498H1.40117ZM1.40117 11.2248H1.22617C1.22617 11.2498 1.25117 11.2748 1.27617 11.2998H1.42617L1.40117 11.2248ZM1.15117 11.0748H1.52617V11.2998H2.07617V10.7248H2.00117V11.1998H1.85117V10.7248H1.77617V11.1998H1.62617V10.7248H1.55117V10.9748H1.12617C1.12617 11.0248 1.15117 11.0498 1.15117 11.0748Z" fill="white"/>
<path d="M1.40039 10.7498H1.02539C1.02539 10.7748 1.05039 10.7998 1.05039 10.8248H1.40039V10.7498ZM3.40039 5.2498H3.75039V5.1748H3.50039V5.0248H3.87539V5.2498H4.42539V4.6748H4.35039V5.1748H4.20039V4.6748H4.10039V5.1748H3.95039V4.6748H3.87539V4.9248H3.40039V5.2498ZM3.25039 5.2498V4.9248H2.92539V5.0248H3.17539V5.1748H2.80039V4.9248H2.25039V5.2748H2.32539V5.0248H2.70039V5.2498H3.25039Z" fill="white"/>
<path d="M2.44961 5.17471H2.57461V5.24971H2.44961V5.17471ZM2.22461 4.69971H3.74961V4.77471H2.22461V4.69971ZM2.92461 11.0747H3.17461V11.2247H2.79961V10.9747H2.24961V11.3247H2.32461V11.0747H2.69961V11.2997H3.24961V10.9747H2.92461V11.0747Z" fill="white"/>
<path d="M2.44961 11.225H2.57461V11.3H2.44961V11.225ZM2.22461 10.75H3.74961V10.825H2.22461V10.75Z" fill="white"/>
<path d="M4.35039 11.2248H4.20039V10.7248H4.10039V11.2248H3.95039V10.7248H3.87539V10.9748H3.40039V11.2998H3.75039V11.2248H3.50039V11.0748H3.87539V11.2998H4.42539V10.7248H4.35039V11.2248ZM5.75039 5.2498H6.07539V5.1748H5.82539V5.0248H6.20039V5.2498H6.75039V4.6748H6.67539V5.1748H6.52539V4.6748H6.45039V5.1748H6.30039V4.6748H6.20039V4.9248H5.75039V5.2498ZM5.60039 5.2498V4.9248H5.25039V5.0248H5.50039V5.1748H5.12539V4.9248H4.57539V5.2748H4.65039V5.0248H5.05039V5.2498H5.60039Z" fill="white"/>
<path d="M4.55078 4.69971H6.07578V4.77471H4.55078V4.69971ZM4.80078 5.17471H4.92578V5.24971H4.80078V5.17471ZM6.67578 11.2247H6.52578V10.7247H6.45078V11.2247H6.30078V10.7247H6.20078V10.9747H5.75078V11.2997H6.07578V11.2247H5.82578V11.0747H6.20078V11.2997H6.75078V10.7247H6.67578V11.2247ZM4.80078 11.2247H4.92578V11.2997H4.80078V11.2247Z" fill="white"/>
<path d="M4.55078 10.7497H6.07578V10.8247H4.55078V10.7497ZM5.25078 11.0747H5.50078V11.2247H5.12578V10.9747H4.57578V11.3247H4.65078V11.0747H5.05078V11.2997H5.60078V10.9747H5.25078V11.0747ZM7.92578 5.24971V4.92471H7.60078V5.02471H7.85078V5.17471H7.45078V4.92471H6.90078V5.27471H7.00078V5.02471H7.37578V5.24971H7.92578ZM6.90078 4.69971H8.42578V4.77471H6.90078V4.69971Z" fill="white"/>
<path d="M7.12539 5.1748H7.25039V5.2498H7.12539V5.1748ZM8.07539 5.2498H8.40039V5.1748H8.15039V5.0248H8.55039V5.2498H9.10039V4.6748H9.00039V5.1748H8.85039V4.6748H8.77539V5.1748H8.62539V4.6748H8.55039V4.9248H8.07539V5.2498ZM6.90039 10.7498H8.42539V10.8248H6.90039V10.7498ZM7.60039 11.0748H7.85039V11.2248H7.45039V10.9748H6.90039V11.3248H7.00039V11.0748H7.37539V11.2998H7.92539V10.9748H7.60039V11.0748Z" fill="white"/>
<path d="M7.125 11.2247H7.25V11.2997H7.125V11.2247ZM9 11.2247H8.85V10.7247H8.775V11.2247H8.625V10.7247H8.55V10.9747H8.075V11.2997H8.4V11.2247H8.15V11.0747H8.55V11.2997H9.1V10.7247H9V11.2247ZM9.45 5.17471H9.575V5.24971H9.45V5.17471ZM9.225 4.69971H10.75V4.77471H9.225V4.69971Z" fill="white"/>
<path d="M10.3996 5.2498H10.7496V5.1748H10.4996V5.0248H10.8746V5.2498H11.4246V4.6748H11.3496V5.1748H11.1996V4.6748H11.0996V5.1748H10.9496V4.6748H10.8746V4.9248H10.3996V5.2498ZM10.2496 5.2498V4.9248H9.92461V5.0248H10.1746V5.1748H9.79961V4.9248H9.24961V5.2748H9.32461V5.0248H9.69961V5.2498H10.2496ZM9.22461 10.7498H10.7496V10.8248H9.22461V10.7498Z" fill="white"/>
<path d="M11.35 11.2246H11.2V10.7246H11.1V11.2246H10.95V10.7246H10.875V10.9746H10.4V11.2996H10.75V11.2246H10.5V11.0746H10.875V11.2996H11.425V10.7246H11.35V11.2246ZM9.925 11.0746H10.175V11.2246H9.8V10.9746H9.25V11.3246H9.325V11.0746H9.7V11.2996H10.25V10.9746H9.925V11.0746Z" fill="white"/>
<path d="M9.45117 11.2248H9.57617V11.2998H9.45117V11.2248ZM12.6012 5.2498V4.9248H12.2512V5.0248H12.5012V5.1748H12.1262V4.9248H11.5762V5.2748H11.6512V5.0248H12.0512V5.2498H12.6012Z" fill="white"/>
<path d="M11.8008 5.17471H11.9258V5.24971H11.8008V5.17471ZM11.5508 4.69971H13.0758V4.77471H11.5508V4.69971Z" fill="white"/>
<path d="M12.7508 5.2498H13.0758V5.1748H12.8258V5.0248H13.2008V5.2498H13.7508V4.6748H13.6758V5.1748H13.5258V4.6748H13.4508V5.1748H13.3008V4.6748H13.2008V4.9248H12.7508V5.2498ZM11.8008 11.2248H11.9258V11.2998H11.8008V11.2248Z" fill="white"/>
<path d="M12.2508 11.075H12.5008V11.225H12.1258V10.975H11.5758V11.325H11.6508V11.075H12.0508V11.3H12.6008V10.975H12.2508V11.075ZM11.5508 10.75H13.0758V10.825H11.5508V10.75Z" fill="white"/>
<path d="M13.675 11.2247H13.525V10.7247H13.45V11.2247H13.3V10.7247H13.2V10.9747H12.75V11.2997H13.075V11.2247H12.825V11.0747H13.2V11.2997H13.75V10.7247H13.675V11.2247ZM13.9 4.77471H14.775C14.75 4.74971 14.75 4.72471 14.725 4.69971H13.875C13.9 4.69971 13.9 4.77471 13.9 4.77471ZM14.6 5.02471H14.85V5.17471H14.475V4.94971H13.925V5.27471H14V5.02471H14.375V5.24971H14.925V5.12471C14.9 5.07471 14.875 4.99971 14.85 4.94971H14.6V5.02471Z" fill="white"/>
<path d="M14.1254 5.1748H14.2504V5.2498H14.1254V5.1748ZM14.1254 11.2248H14.2504V11.2998H14.1254V11.2248ZM13.9004 10.7498V10.8248H14.9504C14.9504 10.7998 14.9754 10.7748 14.9754 10.7498H13.9004ZM14.6004 11.0748H14.8504C14.8754 11.0498 14.8754 11.0248 14.9004 10.9748H14.6004V11.0748Z" fill="white"/>
<path d="M14.4504 11.225V11H13.9004V11.325H14.0004V11.075H14.3754V11.3H14.7254C14.7504 11.275 14.7504 11.25 14.7754 11.225H14.4504Z" fill="white"/>
<path d="M9.12449 8.4748C9.34949 7.8248 9.12449 7.0998 8.62449 6.6498C9.19949 7.4998 8.97449 8.6248 8.17449 9.2248L8.22449 7.8248V6.7248C8.12449 6.6748 8.04949 6.6248 7.99949 6.5498C7.94949 6.6248 7.87449 6.6998 7.77449 6.7248V7.8248L7.82449 9.2248C6.99949 8.6248 6.79949 7.4998 7.37449 6.6498C6.84949 7.0998 6.64949 7.8248 6.87449 8.4748C7.02449 8.9248 7.32449 9.2498 7.69949 9.4498C7.47449 9.5248 7.22449 9.5748 6.97449 9.5748C7.27449 9.6748 7.57449 9.6748 7.84949 9.6248V9.6748L7.99949 9.8748L8.14949 9.6748V9.6248C8.42449 9.6748 8.72449 9.6748 9.02449 9.5748C8.77449 9.5748 8.52449 9.5498 8.29949 9.4498C8.67449 9.2498 8.97449 8.8998 9.12449 8.4748Z" fill="#ED4C5C"/>
<path d="M9.67418 7.2748C9.47418 6.9498 9.14918 6.6998 8.77418 6.5998C9.59918 7.2248 9.77418 8.3998 9.14918 9.2248C9.84918 8.8498 10.0742 7.9748 9.67418 7.2748ZM7.19918 6.5998C6.82418 6.6998 6.49918 6.9248 6.29918 7.2748C5.89918 7.9498 6.14918 8.8248 6.82418 9.2248C6.22418 8.3998 6.37418 7.2248 7.19918 6.5998ZM7.62418 6.4998C7.74918 6.5748 7.92418 6.5498 7.99918 6.4248C8.07418 6.5498 8.24918 6.5748 8.37418 6.4998C8.47418 6.4248 8.52418 6.2998 8.47418 6.1748C8.44918 6.3248 8.32418 6.3998 8.17418 6.3748C8.09918 6.3498 8.04918 6.3248 7.99918 6.2498C7.97418 6.3248 7.89918 6.3498 7.82418 6.3748C7.67418 6.3998 7.54918 6.2998 7.52418 6.1748C7.47418 6.2998 7.52418 6.4248 7.62418 6.4998Z" fill="#ED4C5C"/>
</g>
<defs>
<clipPath id="clip0_591_199">
<rect width="16" height="16" fill="white"/>
</clipPath>
</defs>
</svg>
