<svg width="16" height="16" viewBox="0 0 16 16" fill="none" xmlns="http://www.w3.org/2000/svg">
<g clip-path="url(#clip0_591_36)">
<path d="M0.425781 7.99981C0.425781 11.2748 2.52578 14.0498 5.42578 15.0748V0.924805C2.52578 1.9498 0.425781 4.7248 0.425781 7.99981Z" fill="#75A843"/>
<path d="M15.4258 7.99981C15.4258 4.7248 13.3258 1.9498 10.4258 0.924805V15.0748C13.3508 14.0498 15.4258 11.2748 15.4258 7.99981Z" fill="#ED4C5C"/>
<path d="M5.42578 15.075C6.20078 15.35 7.05078 15.5 7.92578 15.5C8.80078 15.5 9.65078 15.35 10.4258 15.075V0.925C9.65078 0.65 8.80078 0.5 7.92578 0.5C7.05078 0.5 6.20078 0.65 5.42578 0.925V15.075Z" fill="white"/>
</g>
<defs>
<clipPath id="clip0_591_36">
<rect width="16" height="16" fill="white"/>
</clipPath>
</defs>
</svg>
