<svg width="24" height="24" viewBox="0 0 24 24" fill="none" xmlns="http://www.w3.org/2000/svg">
<path d="M21 12H3C2.60218 12 2.22064 12.158 1.93934 12.4393C1.65804 12.7206 1.5 13.1021 1.5 13.5V16.5C1.5 16.8978 1.65804 17.2793 1.93934 17.5606C2.22064 17.8419 2.60218 18 3 18H21C21.3978 18 21.7794 17.8419 22.0607 17.5606C22.342 17.2793 22.5 16.8978 22.5 16.5V13.5C22.5 13.1021 22.342 12.7206 22.0607 12.4393C21.7794 12.158 21.3978 12 21 12ZM21 16.5H9V13.5H21V16.5ZM19.5104 5.63246C20.2604 4.2984 20.206 3.59715 20.1067 3.29715C20.0631 3.15405 19.9767 3.02775 19.8592 2.93527C19.7687 2.89556 19.687 2.83837 19.6187 2.76699C19.5504 2.69561 19.4969 2.61144 19.4612 2.51932C19.4256 2.42719 19.4085 2.32893 19.4109 2.23017C19.4133 2.13142 19.4352 2.03411 19.4753 1.94384C19.5155 1.85358 19.573 1.77213 19.6447 1.70417C19.7164 1.63622 19.8009 1.5831 19.8931 1.54786C19.9854 1.51263 20.0838 1.49597 20.1825 1.49885C20.2813 1.50173 20.3785 1.52409 20.4685 1.56465C20.7207 1.69304 20.9445 1.8707 21.1268 2.08713C21.3091 2.30355 21.4461 2.55434 21.5298 2.82465C21.8448 3.77527 21.6057 4.96684 20.8173 6.36746C20.0673 7.70152 20.1217 8.40371 20.221 8.70371C20.2648 8.84647 20.3511 8.97242 20.4685 9.06465C20.559 9.10436 20.6407 9.16155 20.709 9.23293C20.7773 9.30431 20.8308 9.38848 20.8665 9.4806C20.9021 9.57273 20.9193 9.67099 20.9168 9.76975C20.9144 9.8685 20.8925 9.96581 20.8524 10.0561C20.8122 10.1463 20.7547 10.2278 20.683 10.2957C20.6113 10.3637 20.5269 10.4168 20.4346 10.4521C20.3423 10.4873 20.2439 10.5039 20.1452 10.5011C20.0464 10.4982 19.9492 10.4758 19.8592 10.4353C19.6069 10.3071 19.3829 10.1294 19.2006 9.913C19.0183 9.69655 18.8814 9.44568 18.7979 9.17527C18.4857 8.22465 18.7248 7.03121 19.5104 5.63246Z" fill="#B3B3B3"/>
</svg>
