<svg width="24" height="24" viewBox="0 0 24 24" fill="none" xmlns="http://www.w3.org/2000/svg">
<path d="M6.66602 10.4982C6.95998 12.3643 9.22664 14 11.9821 14C14.9374 14 17.3327 12.1194 17.3327 10.0899C17.3327 10.0726 17.3311 10.0557 17.3308 10.0391C14.282 9.72991 10.3978 11.3848 6.66602 10.4982Z" fill="#B3B3B3"/>
<path d="M20.25 7.66688C20.25 3.39075 18.1091 0.75 18.1091 0.75H5.8905C5.8905 0.75 3.75 3.3945 3.75 7.66688C3.75 11.7274 7.221 15.4991 11.5856 15.7252C11.5346 18.0832 11.334 20.5387 10.7565 21.3892C9.94313 22.5877 7.09238 21.972 7.09238 23.25H16.9088C16.9088 21.9716 14.0569 22.5877 13.2435 21.3892C12.666 20.5387 12.4654 18.0836 12.4144 15.7252C16.7779 15.4995 20.25 11.7274 20.25 7.66688ZM12 14.7203C8.32725 14.7203 5.30625 11.8024 4.91475 8.4735C4.88575 8.23194 4.8706 7.98892 4.86937 7.74563C4.86937 4.05188 6.71925 1.76663 6.71925 1.76663H17.2804C17.2804 1.76663 19.0976 4.0125 19.128 7.65488C19.1284 7.68488 19.1306 7.7145 19.1306 7.74563C19.1306 11.3655 15.9383 14.7203 12 14.7203Z" fill="#B3B3B3"/>
</svg>
