<svg width="24" height="24" viewBox="0 0 24 24" fill="none" xmlns="http://www.w3.org/2000/svg">
<path d="M9.49879 5.79294C10.9188 3.88894 13.0538 3.33293 15.0178 3.86794C17.1378 4.44494 19.0018 6.26594 19.6208 8.80194C19.6528 8.93194 19.6804 9.06194 19.7038 9.19194C18.8102 8.87353 17.8383 8.84901 16.9298 9.12193C15.6428 8.16993 14.0488 8.00993 12.6318 8.53193C10.8568 9.18693 9.47079 10.8479 9.14979 12.9379C8.73979 15.6139 10.3698 18.0179 12.6748 20.0619L13.0628 20.3979C12.7498 20.4199 12.4318 20.3709 12.1278 20.3059C11.9716 20.2723 11.8162 20.235 11.6618 20.1939L11.1248 20.0439C6.35078 18.7009 3.15478 16.5999 2.23778 13.4599C1.50578 10.9539 2.20978 8.44494 3.75778 6.88494C5.19178 5.43994 7.31779 4.85394 9.49879 5.79294ZM11.1268 13.2409C11.5548 10.4489 14.7838 9.07294 16.4418 11.4689C16.4577 11.4912 16.4817 11.5063 16.5087 11.511C16.5356 11.5157 16.5633 11.5095 16.5858 11.4939C18.9628 9.80994 21.5258 12.2069 20.9728 14.9769C20.6528 16.5836 19.1628 17.9169 16.5028 18.9769L16.0678 19.1469L15.8048 19.2549C15.5778 19.3439 15.3378 19.4149 15.1208 19.3769C14.9048 19.3389 14.7038 19.1889 14.5208 19.0289L14.2108 18.7489C11.8975 16.7583 10.8695 14.9223 11.1268 13.2409Z" fill="#B3B3B3"/>
</svg>
