<svg width="32" height="24" viewBox="0 0 32 24" fill="none" xmlns="http://www.w3.org/2000/svg">
<path d="M6.02392 1.6001C6.57307 1.6001 7.09974 1.81924 7.48805 2.20932C7.87636 2.59939 8.09451 3.12845 8.09451 3.6801C8.09451 4.23175 7.87636 4.7608 7.48805 5.15088C7.09974 5.54096 6.57307 5.7601 6.02392 5.7601C5.47477 5.7601 4.9481 5.54096 4.55979 5.15088C4.17148 4.7608 3.95333 4.23175 3.95333 3.6801C3.95333 3.12845 4.17148 2.59939 4.55979 2.20932C4.9481 1.81924 5.47477 1.6001 6.02392 1.6001ZM4.47098 6.8001H7.57686C8.12602 6.8001 8.65268 7.01924 9.04099 7.40932C9.4293 7.79939 9.64745 8.32845 9.64745 8.8801V14.6001H8.09451V22.4001H3.95333V14.6001H2.40039V8.8801C2.40039 8.32845 2.61854 7.79939 3.00685 7.40932C3.39516 7.01924 3.92182 6.8001 4.47098 6.8001ZM15.3416 1.6001C15.8907 1.6001 16.4174 1.81924 16.8057 2.20932C17.194 2.59939 17.4122 3.12845 17.4122 3.6801C17.4122 4.23175 17.194 4.7608 16.8057 5.15088C16.4174 5.54096 15.8907 5.7601 15.3416 5.7601C14.7924 5.7601 14.2658 5.54096 13.8774 5.15088C13.4891 4.7608 13.271 4.23175 13.271 3.6801C13.271 3.12845 13.4891 2.59939 13.8774 2.20932C14.2658 1.81924 14.7924 1.6001 15.3416 1.6001ZM13.7886 22.4001V16.1601H10.6827L13.3642 8.2665C13.623 7.4137 14.4098 6.8001 15.3416 6.8001C16.2733 6.8001 17.0602 7.4137 17.319 8.2665L20.0004 16.1601H16.8945V22.4001H13.7886Z" fill="#B3B3B3"/>
<path d="M24.3008 1.6001C24.8312 1.6001 25.3399 1.81924 25.715 2.20932C26.0901 2.59939 26.3008 3.12845 26.3008 3.6801C26.3008 4.23175 26.0901 4.7608 25.715 5.15088C25.3399 5.54096 24.8312 5.7601 24.3008 5.7601C23.1908 5.7601 22.3008 4.8345 22.3008 3.6801C22.3008 2.5257 23.2008 1.6001 24.3008 1.6001ZM26.2108 8.2665C26.0862 7.8411 25.8331 7.46876 25.4891 7.20464C25.1451 6.94052 24.7284 6.79867 24.3008 6.8001H22.8008C21.7008 6.8001 20.8008 7.7361 20.8008 8.8801V14.6001H22.3008V22.4001H25.8008V16.1601H28.8008L26.2108 8.2665Z" fill="#B3B3B3"/>
</svg>
