<svg width="24" height="24" viewBox="0 0 24 24" fill="none" xmlns="http://www.w3.org/2000/svg">
<path d="M18.8438 5.63246C19.5938 4.2984 19.5394 3.59715 19.44 3.29715C19.3965 3.15405 19.3101 3.02775 19.1925 2.93527C19.102 2.89556 19.0203 2.83837 18.952 2.76699C18.8838 2.69561 18.8302 2.61144 18.7946 2.51932C18.7589 2.42719 18.7418 2.32893 18.7442 2.23017C18.7466 2.13142 18.7685 2.03411 18.8087 1.94384C18.8488 1.85358 18.9064 1.77213 18.9781 1.70417C19.0498 1.63622 19.1342 1.5831 19.2265 1.54786C19.3188 1.51263 19.4171 1.49597 19.5158 1.49885C19.6146 1.50173 19.7118 1.52409 19.8019 1.56465C20.054 1.69304 20.2779 1.8707 20.4602 2.08713C20.6424 2.30355 20.7795 2.55434 20.8631 2.82465C21.1781 3.77527 20.9391 4.96684 20.1506 6.36746C19.4006 7.70152 19.455 8.40371 19.5544 8.70371C19.5981 8.84647 19.6845 8.97242 19.8019 9.06465C19.8923 9.10436 19.974 9.16155 20.0423 9.23293C20.1106 9.30431 20.1641 9.38848 20.1998 9.4806C20.2355 9.57273 20.2526 9.67099 20.2502 9.76975C20.2477 9.8685 20.2258 9.96581 20.1857 10.0561C20.1456 10.1463 20.088 10.2278 20.0163 10.2957C19.9446 10.3637 19.8602 10.4168 19.7679 10.4521C19.6756 10.4873 19.5773 10.5039 19.4785 10.5011C19.3798 10.4982 19.2826 10.4758 19.1925 10.4353C18.9402 10.3071 18.7163 10.1294 18.534 9.913C18.3517 9.69655 18.2147 9.44568 18.1312 9.17527C17.8191 8.22465 18.0581 7.03121 18.8438 5.63246ZM14.3812 9.17527C14.4647 9.44568 14.6017 9.69655 14.784 9.913C14.9663 10.1294 15.1902 10.3071 15.4425 10.4353C15.5326 10.4758 15.6298 10.4982 15.7285 10.5011C15.8273 10.5039 15.9256 10.4873 16.0179 10.4521C16.1102 10.4168 16.1946 10.3637 16.2663 10.2957C16.338 10.2278 16.3956 10.1463 16.4357 10.0561C16.4758 9.96581 16.4977 9.8685 16.5002 9.76975C16.5026 9.67099 16.4855 9.57273 16.4498 9.4806C16.4141 9.38848 16.3606 9.30431 16.2923 9.23293C16.224 9.16155 16.1423 9.10436 16.0519 9.06465C15.9345 8.97242 15.8481 8.84647 15.8044 8.70371C15.705 8.40371 15.6506 7.70152 16.4006 6.36746C17.1891 4.96684 17.4319 3.77527 17.1131 2.82465C17.0295 2.55434 16.8924 2.30355 16.7102 2.08713C16.5279 1.8707 16.304 1.69304 16.0519 1.56465C15.9618 1.52409 15.8646 1.50173 15.7658 1.49885C15.6671 1.49597 15.5688 1.51263 15.4765 1.54786C15.3842 1.5831 15.2998 1.63622 15.2281 1.70417C15.1564 1.77213 15.0988 1.85358 15.0587 1.94384C15.0185 2.03411 14.9966 2.13142 14.9942 2.23017C14.9918 2.32893 15.0089 2.42719 15.0446 2.51932C15.0802 2.61144 15.1338 2.69561 15.202 2.76699C15.2703 2.83837 15.352 2.89556 15.4425 2.93527C15.5601 3.02775 15.6465 3.15405 15.69 3.29715C15.7894 3.59715 15.8438 4.2984 15.0938 5.63246C14.3081 7.03121 14.0691 8.22465 14.3841 9.17527H14.3812ZM20.0522 19.7456C20.1198 19.8182 20.1723 19.9036 20.2067 19.9967C20.2411 20.0898 20.2567 20.1888 20.2526 20.2879C20.2484 20.3871 20.2247 20.4844 20.1826 20.5743C20.1406 20.6642 20.0811 20.7449 20.0076 20.8117C19.9342 20.8784 19.8482 20.9299 19.7547 20.9632C19.6612 20.9965 19.5621 21.0109 19.4629 21.0055C19.3638 21.0002 19.2668 20.9753 19.1774 20.9321C19.088 20.889 19.0081 20.8286 18.9422 20.7543L16.4409 18H3C2.60218 18 2.22064 17.8419 1.93934 17.5606C1.65804 17.2793 1.5 16.8978 1.5 16.5V13.5C1.5 13.1021 1.65804 12.7206 1.93934 12.4393C2.22064 12.158 2.60218 12 3 12H10.9866L3.945 4.25434C3.87738 4.18169 3.82484 4.09635 3.79044 4.00325C3.75604 3.91016 3.74046 3.81116 3.74461 3.712C3.74875 3.61284 3.77253 3.51548 3.81458 3.42558C3.85662 3.33568 3.91609 3.25501 3.98954 3.18827C4.06299 3.12152 4.14896 3.07001 4.24246 3.03673C4.33596 3.00345 4.43514 2.98906 4.53424 2.99439C4.63335 2.99972 4.73041 3.02467 4.8198 3.06779C4.90919 3.11091 4.98914 3.17134 5.055 3.24559L20.0522 19.7456ZM15.0769 16.5L12.3497 13.5H9V16.5H15.0769ZM21 12H16.7363C16.5373 12 16.3466 12.079 16.2059 12.2196C16.0653 12.3603 15.9863 12.551 15.9863 12.75C15.9863 12.9489 16.0653 13.1396 16.2059 13.2803C16.3466 13.4209 16.5373 13.5 16.7363 13.5H21V16.5H20.8275C20.6286 16.5 20.4378 16.579 20.2972 16.7196C20.1565 16.8603 20.0775 17.051 20.0775 17.25C20.0775 17.4489 20.1565 17.6396 20.2972 17.7803C20.4378 17.9209 20.6286 18 20.8275 18H21C21.3978 18 21.7794 17.8419 22.0607 17.5606C22.342 17.2793 22.5 16.8978 22.5 16.5V13.5C22.5 13.1021 22.342 12.7206 22.0607 12.4393C21.7794 12.158 21.3978 12 21 12Z" fill="#B3B3B3"/>
</svg>
