<svg width="24" height="24" viewBox="0 0 24 24" fill="none" xmlns="http://www.w3.org/2000/svg">
<path d="M15.2183 9.42843C16.0463 9.42843 16.7183 10.1004 16.7183 10.9284V16.7133C16.7183 17.9638 16.2215 19.1631 15.3372 20.0474C14.453 20.9317 13.2537 21.4284 12.0031 21.4284C10.7526 21.4284 9.55328 20.9317 8.66902 20.0474C7.78476 19.1631 7.28799 17.9638 7.28799 16.7133V10.9284C7.28799 10.1004 7.95913 9.42843 8.78799 9.42843H15.2183ZM3.21484 9.42843L6.97084 9.42672C6.66197 9.7989 6.47602 10.2577 6.43856 10.7399L6.42999 10.9284V16.7133C6.42999 17.6844 6.67942 18.5981 7.1157 19.3936C6.5285 19.65 5.88666 19.7561 5.24817 19.7023C4.60967 19.6486 3.99463 19.4365 3.45862 19.0855C2.9226 18.7344 2.48249 18.2553 2.17804 17.6915C1.87359 17.1277 1.7144 16.4969 1.71484 15.8561V10.9284C1.71484 10.7314 1.75367 10.5363 1.82911 10.3542C1.90454 10.1722 2.01511 10.0068 2.15449 9.86747C2.29387 9.72817 2.45933 9.6177 2.64141 9.54237C2.8235 9.46703 3.01779 9.42832 3.21484 9.42843ZM17.0363 9.42672L20.7863 9.42843C21.6143 9.42843 22.2863 10.1004 22.2863 10.9284V15.857C22.2865 16.4974 22.1273 17.1278 21.823 17.6913C21.5187 18.2549 21.0789 18.7337 20.5432 19.0847C20.0075 19.4357 19.3929 19.6479 18.7548 19.7019C18.1166 19.756 17.4751 19.6503 16.888 19.3944L16.936 19.307C17.3037 18.6101 17.5274 17.825 17.5686 16.9927L17.5754 16.7133V10.9284C17.5754 10.3576 17.3731 9.83472 17.0363 9.42672ZM12.0006 2.57129C12.3945 2.57129 12.7846 2.64889 13.1486 2.79965C13.5126 2.95041 13.8433 3.17139 14.1219 3.44997C14.4005 3.72854 14.6214 4.05926 14.7722 4.42324C14.923 4.78722 15.0006 5.17732 15.0006 5.57129C15.0006 5.96525 14.923 6.35536 14.7722 6.71934C14.6214 7.08332 14.4005 7.41403 14.1219 7.69261C13.8433 7.97118 13.5126 8.19216 13.1486 8.34293C12.7846 8.49369 12.3945 8.57129 12.0006 8.57129C11.2049 8.57129 10.4418 8.25522 9.87924 7.69261C9.31663 7.13 9.00056 6.36694 9.00056 5.57129C9.00056 4.77564 9.31663 4.01258 9.87924 3.44997C10.4418 2.88736 11.2049 2.57129 12.0006 2.57129ZM18.8603 3.42843C19.198 3.42843 19.5323 3.49494 19.8443 3.62417C20.1563 3.7534 20.4398 3.94281 20.6785 4.18159C20.9173 4.42037 21.1067 4.70384 21.236 5.01582C21.3652 5.3278 21.4317 5.66218 21.4317 5.99986C21.4317 6.33755 21.3652 6.67192 21.236 6.9839C21.1067 7.29588 20.9173 7.57936 20.6785 7.81814C20.4398 8.05691 20.1563 8.24632 19.8443 8.37555C19.5323 8.50478 19.198 8.57129 18.8603 8.57129C18.1783 8.57129 17.5242 8.30037 17.042 7.81814C16.5598 7.3359 16.2888 6.68185 16.2888 5.99986C16.2888 5.31788 16.5598 4.66382 17.042 4.18159C17.5242 3.69935 18.1783 3.42843 18.8603 3.42843ZM5.14084 3.42843C5.47853 3.42843 5.81291 3.49494 6.12489 3.62417C6.43687 3.7534 6.72034 3.94281 6.95912 4.18159C7.1979 4.42037 7.38731 4.70384 7.51653 5.01582C7.64576 5.3278 7.71227 5.66218 7.71227 5.99986C7.71227 6.33755 7.64576 6.67192 7.51653 6.9839C7.38731 7.29588 7.1979 7.57936 6.95912 7.81814C6.72034 8.05691 6.43687 8.24632 6.12489 8.37555C5.81291 8.50478 5.47853 8.57129 5.14084 8.57129C4.45886 8.57129 3.80481 8.30037 3.32257 7.81814C2.84033 7.3359 2.56942 6.68185 2.56942 5.99986C2.56942 5.31788 2.84033 4.66382 3.32257 4.18159C3.80481 3.69935 4.45886 3.42843 5.14084 3.42843Z" fill="#B3B3B3"/>
</svg>
