<svg width="24" height="24" viewBox="0 0 24 24" fill="none" xmlns="http://www.w3.org/2000/svg">
<g clip-path="url(#clip0_591_272)">
<path d="M11.627 0.375C5.20508 0.375 0.00195312 5.57812 0.00195312 12C0.00195312 18.4219 5.20508 23.625 11.627 23.625C18.0488 23.625 23.252 18.4219 23.252 12C23.252 5.57812 18.0488 0.375 11.627 0.375ZM15.377 8.25C16.2066 8.25 16.877 8.92031 16.877 9.75C16.877 10.5797 16.2066 11.25 15.377 11.25C14.5473 11.25 13.877 10.5797 13.877 9.75C13.877 8.92031 14.5473 8.25 15.377 8.25ZM7.87695 8.25C8.70664 8.25 9.37695 8.92031 9.37695 9.75C9.37695 10.5797 8.70664 11.25 7.87695 11.25C7.04727 11.25 6.37695 10.5797 6.37695 9.75C6.37695 8.92031 7.04727 8.25 7.87695 8.25ZM17.0082 16.2281C15.6723 17.8313 13.7129 18.75 11.627 18.75C9.54102 18.75 7.58164 17.8313 6.2457 16.2281C5.6082 15.4641 6.76133 14.5078 7.39883 15.2672C8.44883 16.5281 9.98633 17.2453 11.627 17.2453C13.2676 17.2453 14.8051 16.5234 15.8551 15.2672C16.4832 14.5078 17.641 15.4641 17.0082 16.2281Z" fill="#B3B3B3"/>
</g>
<defs>
<clipPath id="clip0_591_272">
<rect width="23.2533" height="24" fill="white"/>
</clipPath>
</defs>
</svg>
