<svg width="24" height="24" viewBox="0 0 24 24" fill="none" xmlns="http://www.w3.org/2000/svg">
<path d="M21 12H3C2.60218 12 2.22064 12.158 1.93934 12.4393C1.65804 12.7206 1.5 13.1021 1.5 13.5V16.5C1.5 16.8978 1.65804 17.2793 1.93934 17.5606C2.22064 17.8419 2.60218 18 3 18H21C21.3978 18 21.7794 17.8419 22.0607 17.5606C22.342 17.2793 22.5 16.8978 22.5 16.5V13.5C22.5 13.1021 22.342 12.7206 22.0607 12.4393C21.7794 12.158 21.3978 12 21 12ZM21 16.5H9V13.5H21V16.5ZM18.8438 5.63246C19.5938 4.2984 19.5394 3.59715 19.44 3.29715C19.3965 3.15405 19.3101 3.02775 19.1925 2.93527C19.102 2.89556 19.0203 2.83837 18.952 2.76699C18.8838 2.69561 18.8302 2.61144 18.7946 2.51932C18.7589 2.42719 18.7418 2.32893 18.7442 2.23017C18.7466 2.13142 18.7685 2.03411 18.8087 1.94384C18.8488 1.85358 18.9064 1.77213 18.9781 1.70417C19.0498 1.63622 19.1342 1.5831 19.2265 1.54786C19.3188 1.51263 19.4171 1.49597 19.5158 1.49885C19.6146 1.50173 19.7118 1.52409 19.8019 1.56465C20.054 1.69304 20.2779 1.8707 20.4602 2.08713C20.6424 2.30355 20.7795 2.55434 20.8631 2.82465C21.1781 3.77527 20.9391 4.96684 20.1506 6.36746C19.4006 7.70152 19.455 8.40371 19.5544 8.70371C19.5981 8.84647 19.6845 8.97242 19.8019 9.06465C19.8923 9.10436 19.974 9.16155 20.0423 9.23293C20.1106 9.30431 20.1641 9.38848 20.1998 9.4806C20.2355 9.57273 20.2526 9.67099 20.2502 9.76975C20.2477 9.8685 20.2258 9.96581 20.1857 10.0561C20.1456 10.1463 20.088 10.2278 20.0163 10.2957C19.9446 10.3637 19.8602 10.4168 19.7679 10.4521C19.6756 10.4873 19.5773 10.5039 19.4785 10.5011C19.3798 10.4982 19.2826 10.4758 19.1925 10.4353C18.9402 10.3071 18.7163 10.1294 18.534 9.913C18.3517 9.69655 18.2147 9.44568 18.1312 9.17527C17.8191 8.22465 18.0581 7.03121 18.8438 5.63246ZM15.0938 5.63246C15.8438 4.2984 15.7894 3.59715 15.69 3.29715C15.6465 3.15405 15.5601 3.02775 15.4425 2.93527C15.352 2.89556 15.2703 2.83837 15.202 2.76699C15.1338 2.69561 15.0802 2.61144 15.0446 2.51932C15.0089 2.42719 14.9918 2.32893 14.9942 2.23017C14.9966 2.13142 15.0185 2.03411 15.0587 1.94384C15.0988 1.85358 15.1564 1.77213 15.2281 1.70417C15.2998 1.63622 15.3842 1.5831 15.4765 1.54786C15.5688 1.51263 15.6671 1.49597 15.7658 1.49885C15.8646 1.50173 15.9618 1.52409 16.0519 1.56465C16.304 1.69304 16.5279 1.8707 16.7102 2.08713C16.8924 2.30355 17.0295 2.55434 17.1131 2.82465C17.4281 3.77527 17.1891 4.96684 16.4006 6.36746C15.6506 7.70152 15.705 8.40371 15.8044 8.70371C15.8481 8.84647 15.9345 8.97242 16.0519 9.06465C16.1423 9.10436 16.224 9.16155 16.2923 9.23293C16.3606 9.30431 16.4141 9.38848 16.4498 9.4806C16.4855 9.57273 16.5026 9.67099 16.5002 9.76975C16.4977 9.8685 16.4758 9.96581 16.4357 10.0561C16.3956 10.1463 16.338 10.2278 16.2663 10.2957C16.1946 10.3637 16.1102 10.4168 16.0179 10.4521C15.9256 10.4873 15.8273 10.5039 15.7285 10.5011C15.6298 10.4982 15.5326 10.4758 15.4425 10.4353C15.1902 10.3071 14.9663 10.1294 14.784 9.913C14.6017 9.69655 14.4647 9.44568 14.3812 9.17527C14.0691 8.22465 14.3081 7.03121 15.0938 5.63246Z" fill="#B3B3B3"/>
</svg>
