<svg width="24" height="24" viewBox="0 0 24 24" fill="none" xmlns="http://www.w3.org/2000/svg">
<path d="M7 19C6.35 18.8333 5.68767 18.7083 5.013 18.625C4.33833 18.5417 3.66733 18.5 3 18.5H2V16.5H3C3.66667 16.5 4.33767 16.4583 5.013 16.375C5.68833 16.2917 6.35067 16.1667 7 16V19ZM16.175 19H8V16H13.175H14.225H16L18.975 19H16.175ZM17.413 19L16 16H22V19H17.413ZM10.5 18C10.6333 18 10.75 17.95 10.85 17.85C10.95 17.75 11 17.6333 11 17.5C11 17.3667 10.95 17.25 10.85 17.15C10.75 17.05 10.6333 17 10.5 17C10.3667 17 10.25 17.05 10.15 17.15C10.05 17.25 10 17.3667 10 17.5C10 17.6333 10.05 17.75 10.15 17.85C10.25 17.95 10.3667 18 10.5 18ZM20.5 15V12.775C20.5 11.6417 20.1167 10.6793 19.35 9.888C18.5833 9.09667 17.6333 8.70067 16.5 8.7V7.2C17.0167 7.2 17.4543 7.021 17.813 6.663C18.1717 6.305 18.3507 5.86733 18.35 5.35C18.3493 4.83267 18.1703 4.39533 17.813 4.038C17.4557 3.68067 17.018 3.50133 16.5 3.5V2C17.4333 2 18.225 2.325 18.875 2.975C19.525 3.625 19.85 4.41667 19.85 5.35C19.85 5.81667 19.7627 6.25433 19.588 6.663C19.4133 7.07167 19.1673 7.42567 18.85 7.725C19.8 8.175 20.5627 8.846 21.138 9.738C21.7133 10.63 22.0007 11.634 22 12.75V15H20.5ZM18 15V13.7C18 13.05 17.8043 12.5457 17.413 12.187C17.0217 11.8283 16.559 11.6493 16.025 11.65H14.475C14.475 11.65 13.1163 11.783 12 10.6667C10.8837 9.55032 11.15 8.325 11.15 8.325V8.3C11.15 7.36667 11.475 6.575 12.125 5.925C12.775 5.275 13.5667 4.95 14.5 4.95V6.45C13.9833 6.45 13.546 6.61267 13.188 6.938C12.83 7.26333 12.6507 7.684 12.65 8.2C12.6493 8.716 12.8287 9.17867 13.188 9.588C13.5473 9.99733 13.9847 10.2013 14.5 10.2H16.025C16.975 10.2 17.7917 10.5 18.475 11.1C19.1583 11.7 19.5 12.45 19.5 13.35V15H18Z" fill="#B3B3B3"/>
</svg>
